<svg width="320" height="208" viewBox="0 0 320 208" fill="none" xmlns="http://www.w3.org/2000/svg">
<rect width="320" height="208" fill="white"/>
<path d="M40.8496 90.3745C40.2668 93.3616 43.5133 99.5648 50.045 99.7674C57.9414 100.012 62.9862 94.2144 60.6359 84.7519L48.849 32.536C47.4459 26.3202 48.4991 22.9487 49.2483 20.9395C51.2471 15.5791 56.241 13.3681 57.4568 15.0843C58.1509 16.0641 59.8292 20.6455 55.0516 28.8511C51.3255 35.2508 33.9892 43.6428 32.7169 58.6608C31.6156 71.7204 45.8578 81.3656 58.1502 77.5739C66.3114 75.0564 70.5185 63.1672 65.467 57.0344C52.136 40.8502 30.7564 65.6191 51.4671 72.4047C49.215 70.7039 47.68 69.387 47.3941 67.7773C44.6113 52.1054 69.1607 56.2431 62.5461 71.1108C59.8262 77.2245 48.8398 78.4071 42.5831 72.9529C37.3419 68.3838 35.0162 59.5821 40.8487 53.2633C48.7483 44.7052 58.075 37.0225 60.5522 25.3071C63.4815 11.4531 53.9175 0.652417 47.8709 14.2798C45.842 18.8525 45.0863 23.4427 47.029 32.239L58.8066 85.5663C59.6498 89.3841 59.0853 94.6378 55.3731 97.0523C53.5342 98.2484 47.0271 99.0716 45.4352 96.2165" fill="black"/>
<path d="M40.8496 90.3745C40.2668 93.3616 43.5133 99.5648 50.045 99.7674C57.9414 100.012 62.9862 94.2144 60.6359 84.7519L48.849 32.536C47.4459 26.3202 48.4991 22.9487 49.2483 20.9395C51.2471 15.5791 56.241 13.3681 57.4568 15.0843C58.1509 16.0641 59.8292 20.6455 55.0516 28.8511C51.3255 35.2508 33.9892 43.6428 32.7169 58.6608C31.6156 71.7204 45.8578 81.3656 58.1502 77.5739C66.3114 75.0564 70.5185 63.1672 65.467 57.0344C52.136 40.8502 30.7564 65.6191 51.4671 72.4047C49.215 70.7039 47.68 69.387 47.3941 67.7773C44.6113 52.1054 69.1607 56.2431 62.5461 71.1108C59.8262 77.2245 48.8398 78.4071 42.5831 72.9529C37.3419 68.3838 35.0162 59.5821 40.8487 53.2633C48.7483 44.7052 58.075 37.0225 60.5522 25.3071C63.4815 11.4531 53.9175 0.652417 47.8709 14.2798C45.842 18.8525 45.0863 23.4427 47.029 32.239L58.8066 85.5663C59.6498 89.3841 59.0853 94.6378 55.3731 97.0523C53.5342 98.2484 47.0271 99.0716 45.4352 96.2165" stroke="black" stroke-width="0.101028"/>
<path d="M40.7593 90.8231C40.7874 89.3854 41.3993 88.0171 42.4604 87.0193C43.5215 86.0214 44.9448 85.4758 46.4173 85.5023C47.8898 85.5288 49.2908 86.1254 50.3122 87.1608C51.3335 88.1961 51.8915 89.5855 51.8634 91.0232C51.8352 92.4609 51.2233 93.8292 50.1622 94.8271C49.1011 95.8249 47.6778 96.3706 46.2053 96.3441C44.7328 96.3175 43.3318 95.721 42.3105 94.6856C41.2891 93.6502 40.7311 92.2608 40.7593 90.8231V90.8231Z" fill="black" stroke="black" stroke-width="0.101028"/>
<path d="M32.6568 188.988C32.6568 188.488 34.7846 186.431 37.3851 184.416C42.9763 180.086 47.0141 175.347 49.3627 170.361C54.7485 158.927 53.0424 147.004 45.8645 145.916C41.8944 145.313 36.8681 148.589 36.8681 151.779C36.8681 152.963 37.1358 153.058 40.0463 152.911C43.6074 152.731 46.0166 156.651 44.0895 159.49C41.0444 163.975 33.7096 161.398 33.7096 155.843C33.7096 150.975 36.3294 147.1 40.9404 145.149C50.8079 140.974 60.2008 148.671 59.3783 160.258C58.7042 169.755 51.3923 178.625 37.1977 187.165C33.8296 189.191 32.6568 189.662 32.6568 188.988V188.988Z" fill="black"/>
<path d="M67.4528 152.245C67.4528 154.178 66.1301 155.745 64.4984 155.745C62.8666 155.745 61.5439 154.178 61.5439 152.245C61.5439 150.311 62.8666 148.744 64.4984 148.744C66.1301 148.744 67.4528 150.311 67.4528 152.245Z" fill="black"/>
<path d="M67.6568 164.079C67.6568 166.013 66.334 167.58 64.7023 167.58C63.0706 167.58 61.7479 166.013 61.7479 164.079C61.7479 162.146 63.0706 160.579 64.7023 160.579C66.334 160.579 67.6568 162.146 67.6568 164.079Z" fill="black"/>
<path fill-rule="evenodd" clip-rule="evenodd" d="M20.6214 21.235C20.0782 21.267 19.5016 21.8419 18.5196 23.254C16.5333 25.8838 13.6838 32.0426 12.5454 35.2542C10.8382 41.9917 10.2783 50.185 10.8473 58.0949C11.1261 60.7218 11.6863 66.5711 12.5454 71.2548C13.9626 82.388 14.2538 87.0719 14.2538 91.7555C13.9635 99.3657 11.9846 105.507 8.84902 109.606C8.27967 110.19 8 110.776 8 111.076C8 111.376 8.27967 111.962 8.84902 112.546C11.9846 116.645 13.9635 122.781 14.2538 130.106C14.2538 135.075 13.9626 139.753 12.5454 150.587C11.6863 155.57 11.1261 161.425 10.8473 163.767C10.2783 171.962 10.8382 180.16 12.5454 186.597C13.9626 191.866 19.0895 200.948 20.5179 200.948C21.087 200.948 21.6568 200.355 21.6568 199.768C21.6568 199.471 21.087 198.602 20.5179 197.718C17.1032 192.749 15.6719 187.768 15.1028 180.157C15.1028 175.474 15.394 171.078 16.8112 159.957C17.3803 155.573 17.9501 150.303 18.24 148.247C19.3784 134.199 17.108 122.196 11.4168 113.416C10.5575 112.244 9.98795 111.076 9.98795 111.076C9.98795 111.076 10.5575 109.898 11.4168 108.726C17.108 99.946 19.3784 87.9425 18.24 73.5948C17.9501 71.8377 17.3803 66.5755 16.8112 61.8948C15.394 51.0701 15.1028 46.6679 15.1028 41.9842C15.6719 34.374 17.1032 29.3926 20.5179 24.424C21.656 22.6669 21.9463 22.0889 21.3773 21.5042C21.1087 21.3205 20.8684 21.2204 20.6214 21.235Z" fill="black"/>
<rect x="26" y="22" width="285" height="178" stroke="black" stroke-width="2"/>
<line x1="24.6568" y1="36" x2="311" y2="36" stroke="black" stroke-width="2"/>
<line x1="24.6568" y1="78" x2="311" y2="78" stroke="black" stroke-width="2"/>
<line x1="24.6568" y1="50" x2="311" y2="50" stroke="black" stroke-width="2"/>
<line x1="24.6568" y1="172" x2="311" y2="172" stroke="black" stroke-width="2"/>
<line x1="24.6568" y1="144" x2="311" y2="144" stroke="black" stroke-width="2"/>
<line x1="24.6568" y1="64" x2="311" y2="64" stroke="black" stroke-width="2"/>
<line x1="24.6568" y1="186" x2="311" y2="186" stroke="black" stroke-width="2"/>
<line x1="24.6568" y1="158" x2="311" y2="158" stroke="black" stroke-width="2"/>
<line x1="303" y1="23" x2="303" y2="201" stroke="black" stroke-width="2"/>
<path d="M151 130H185" stroke="black" stroke-width="2"/>
<path d="M170.665 135.278C167.374 135.104 164.803 132.182 163.771 129.161C163.146 127.389 163.489 124.729 165.572 124.231C168.589 123.718 171.094 126.282 172.497 128.735C173.497 130.554 174.049 133.419 172.175 134.861C171.73 135.16 171.192 135.28 170.665 135.278ZM175.908 124.921C172.2 122.669 167.517 122.494 163.457 123.754C160.885 124.653 157.943 126.566 157.919 129.679C157.917 132.73 160.756 134.633 163.268 135.539C167.244 136.84 171.832 136.725 175.545 134.652C177.646 133.534 179.509 131.218 178.877 128.652C178.53 127.002 177.266 125.767 175.908 124.921Z" fill="black"/>
<path d="M170.746 83.3056C167.455 83.1315 164.884 80.2103 163.852 77.1895C163.227 75.4165 163.57 72.7566 165.653 72.2586C168.67 71.7461 171.174 74.3095 172.578 76.7626C173.578 78.582 174.13 81.4472 172.256 82.8894C171.811 83.1879 171.273 83.3076 170.746 83.3056ZM175.989 72.9492C172.281 70.6974 167.598 70.522 163.538 71.7822C160.966 72.6814 158.024 74.5942 158 77.7073C157.998 80.7576 160.837 82.6606 163.348 83.5668C167.325 84.8676 171.913 84.7532 175.626 82.6796C177.727 81.5615 179.59 79.2461 178.958 76.6799C178.611 75.0297 177.347 73.7949 175.989 72.9492Z" fill="black"/>
<path d="M170.746 69.3056C167.455 69.1315 164.884 66.2103 163.852 63.1895C163.227 61.4165 163.57 58.7566 165.653 58.2586C168.67 57.7461 171.174 60.3095 172.578 62.7626C173.578 64.582 174.13 67.4472 172.256 68.8894C171.811 69.1879 171.273 69.3076 170.746 69.3056ZM175.989 58.9492C172.281 56.6974 167.598 56.522 163.538 57.7822C160.966 58.6814 158.024 60.5942 158 63.7073C157.998 66.7576 160.837 68.6606 163.348 69.5668C167.325 70.8676 171.913 70.7532 175.626 68.6796C177.727 67.5615 179.59 65.2461 178.958 62.6799C178.611 61.0297 177.347 59.7949 175.989 58.9492Z" fill="black"/>
<path d="M170.746 48.3056C167.455 48.1315 164.884 45.2103 163.852 42.1895C163.227 40.4165 163.57 37.7566 165.653 37.2586C168.67 36.7461 171.174 39.3095 172.578 41.7626C173.578 43.582 174.13 46.4472 172.256 47.8894C171.811 48.1879 171.273 48.3076 170.746 48.3056ZM175.989 37.9492C172.281 35.6974 167.598 35.522 163.538 36.7822C160.966 37.6814 158.024 39.5942 158 42.7073C157.998 45.7576 160.837 47.6606 163.348 48.5668C167.325 49.8676 171.913 49.7532 175.626 47.6796C177.727 46.5615 179.59 44.2461 178.958 41.6799C178.611 40.0297 177.347 38.7949 175.989 37.9492Z" fill="black"/>
<path d="M190.797 127.012C191.609 127.012 192.258 127.281 192.742 127.82C193.227 128.359 193.469 129.092 193.469 130.018V130.1C193.469 131.014 193.199 131.746 192.66 132.297C192.121 132.848 191.396 133.123 190.486 133.123C189.572 133.123 188.844 132.826 188.301 132.232C187.762 131.635 187.492 130.824 187.492 129.801V129.52C187.5 128.094 187.74 126.979 188.213 126.174C188.689 125.365 189.404 124.855 190.357 124.645C190.857 124.535 191.18 124.428 191.324 124.322C191.469 124.213 191.541 124.062 191.541 123.871H192.912C192.912 124.484 192.746 124.945 192.414 125.254C192.086 125.562 191.5 125.801 190.656 125.969C190.156 126.07 189.762 126.268 189.473 126.561C189.184 126.854 188.988 127.266 188.887 127.797C189.426 127.273 190.062 127.012 190.797 127.012ZM190.475 128.383C190.072 128.383 189.756 128.518 189.525 128.787C189.299 129.057 189.186 129.494 189.186 130.1C189.186 130.639 189.297 131.051 189.52 131.336C189.742 131.617 190.064 131.758 190.486 131.758C190.896 131.758 191.213 131.619 191.436 131.342C191.658 131.064 191.771 130.656 191.775 130.117V129.977C191.775 129.457 191.66 129.062 191.43 128.793C191.203 128.52 190.885 128.383 190.475 128.383ZM198.156 133C198.078 132.848 198.021 132.658 197.986 132.432C197.576 132.889 197.043 133.117 196.387 133.117C195.766 133.117 195.25 132.938 194.84 132.578C194.434 132.219 194.23 131.766 194.23 131.219C194.23 130.547 194.479 130.031 194.975 129.672C195.475 129.312 196.195 129.131 197.137 129.127H197.916V128.764C197.916 128.471 197.84 128.236 197.688 128.061C197.539 127.885 197.303 127.797 196.979 127.797C196.693 127.797 196.469 127.865 196.305 128.002C196.145 128.139 196.064 128.326 196.064 128.564H194.371C194.371 128.197 194.484 127.857 194.711 127.545C194.938 127.232 195.258 126.988 195.672 126.812C196.086 126.633 196.551 126.543 197.066 126.543C197.848 126.543 198.467 126.74 198.924 127.135C199.385 127.525 199.615 128.076 199.615 128.787V131.535C199.619 132.137 199.703 132.592 199.867 132.9V133H198.156ZM196.756 131.822C197.006 131.822 197.236 131.768 197.447 131.658C197.658 131.545 197.814 131.395 197.916 131.207V130.117H197.283C196.436 130.117 195.984 130.41 195.93 130.996L195.924 131.096C195.924 131.307 195.998 131.48 196.146 131.617C196.295 131.754 196.498 131.822 196.756 131.822ZM203.553 131.752C203.865 131.752 204.119 131.666 204.314 131.494C204.51 131.322 204.611 131.094 204.619 130.809H206.207C206.203 131.238 206.086 131.633 205.855 131.992C205.625 132.348 205.309 132.625 204.906 132.824C204.508 133.02 204.066 133.117 203.582 133.117C202.676 133.117 201.961 132.83 201.438 132.256C200.914 131.678 200.652 130.881 200.652 129.865V129.754C200.652 128.777 200.912 127.998 201.432 127.416C201.951 126.834 202.664 126.543 203.57 126.543C204.363 126.543 204.998 126.77 205.475 127.223C205.955 127.672 206.199 128.271 206.207 129.021H204.619C204.611 128.693 204.51 128.428 204.314 128.225C204.119 128.018 203.861 127.914 203.541 127.914C203.146 127.914 202.848 128.059 202.645 128.348C202.445 128.633 202.346 129.098 202.346 129.742V129.918C202.346 130.57 202.445 131.039 202.645 131.324C202.844 131.609 203.146 131.752 203.553 131.752Z" fill="black"/>
<rect x="188" y="77" width="32" height="2" fill="white"/>
<path d="M192.912 76.0195H190.879V81H189.18V76.0195H187.182V74.6602H192.912V76.0195ZM196.311 81.1172C195.381 81.1172 194.623 80.832 194.037 80.2617C193.455 79.6914 193.164 78.9316 193.164 77.9824V77.8184C193.164 77.1816 193.287 76.6133 193.533 76.1133C193.779 75.6094 194.127 75.2227 194.576 74.9531C195.029 74.6797 195.545 74.543 196.123 74.543C196.99 74.543 197.672 74.8164 198.168 75.3633C198.668 75.9102 198.918 76.6855 198.918 77.6895V78.3809H194.881C194.936 78.7949 195.1 79.127 195.373 79.377C195.65 79.627 196 79.752 196.422 79.752C197.074 79.752 197.584 79.5156 197.951 79.043L198.783 79.9746C198.529 80.334 198.186 80.6152 197.752 80.8184C197.318 81.0176 196.838 81.1172 196.311 81.1172ZM196.117 75.9141C195.781 75.9141 195.508 76.0273 195.297 76.2539C195.09 76.4805 194.957 76.8047 194.898 77.2266H197.254V77.0918C197.246 76.7168 197.145 76.4277 196.949 76.2246C196.754 76.0176 196.477 75.9141 196.117 75.9141ZM205.381 81H203.682V78.5625H201.578V81H199.885V74.6602H201.578V77.2031H203.682V74.6602H205.381V81ZM206.43 77.7715C206.43 77.1426 206.551 76.582 206.793 76.0898C207.035 75.5977 207.383 75.2168 207.836 74.9473C208.293 74.6777 208.822 74.543 209.424 74.543C210.279 74.543 210.977 74.8047 211.516 75.3281C212.059 75.8516 212.361 76.5625 212.424 77.4609L212.436 77.8945C212.436 78.8672 212.164 79.6484 211.621 80.2383C211.078 80.8242 210.35 81.1172 209.436 81.1172C208.521 81.1172 207.791 80.8242 207.244 80.2383C206.701 79.6523 206.43 78.8555 206.43 77.8477V77.7715ZM208.123 77.8945C208.123 78.4961 208.236 78.957 208.463 79.2773C208.689 79.5938 209.014 79.752 209.436 79.752C209.846 79.752 210.166 79.5957 210.396 79.2832C210.627 78.9668 210.742 78.4629 210.742 77.7715C210.742 77.1816 210.627 76.7246 210.396 76.4004C210.166 76.0762 209.842 75.9141 209.424 75.9141C209.01 75.9141 208.689 76.0762 208.463 76.4004C208.236 76.7207 208.123 77.2188 208.123 77.8945ZM219.186 77.8887C219.186 78.8652 218.963 79.6484 218.518 80.2383C218.076 80.8242 217.479 81.1172 216.725 81.1172C216.084 81.1172 215.566 80.8945 215.172 80.4492V83.4375H213.479V74.6602H215.049L215.107 75.2812C215.518 74.7891 216.053 74.543 216.713 74.543C217.494 74.543 218.102 74.832 218.535 75.4102C218.969 75.9883 219.186 76.7852 219.186 77.8008V77.8887ZM217.492 77.7656C217.492 77.1758 217.387 76.7207 217.176 76.4004C216.969 76.0801 216.666 75.9199 216.268 75.9199C215.736 75.9199 215.371 76.123 215.172 76.5293V79.125C215.379 79.543 215.748 79.752 216.279 79.752C217.088 79.752 217.492 79.0898 217.492 77.7656Z" fill="black"/>
<rect x="187" y="63" width="24" height="2" fill="white"/>
<path d="M191.324 67C191.246 66.8477 191.189 66.6582 191.154 66.4316C190.744 66.8887 190.211 67.1172 189.555 67.1172C188.934 67.1172 188.418 66.9375 188.008 66.5781C187.602 66.2188 187.398 65.7656 187.398 65.2188C187.398 64.5469 187.646 64.0312 188.143 63.6719C188.643 63.3125 189.363 63.1309 190.305 63.127H191.084V62.7637C191.084 62.4707 191.008 62.2363 190.855 62.0605C190.707 61.8848 190.471 61.7969 190.146 61.7969C189.861 61.7969 189.637 61.8652 189.473 62.002C189.312 62.1387 189.232 62.3262 189.232 62.5645H187.539C187.539 62.1973 187.652 61.8574 187.879 61.5449C188.105 61.2324 188.426 60.9883 188.84 60.8125C189.254 60.6328 189.719 60.543 190.234 60.543C191.016 60.543 191.635 60.7402 192.092 61.1348C192.553 61.5254 192.783 62.0762 192.783 62.7871V65.5352C192.787 66.1367 192.871 66.5918 193.035 66.9004V67H191.324ZM189.924 65.8223C190.174 65.8223 190.404 65.7676 190.615 65.6582C190.826 65.5449 190.982 65.3945 191.084 65.207V64.1172H190.451C189.604 64.1172 189.152 64.4102 189.098 64.9961L189.092 65.0957C189.092 65.3066 189.166 65.4805 189.314 65.6172C189.463 65.7539 189.666 65.8223 189.924 65.8223ZM199.598 60.6602V67H197.904V62.0312H196.41L196.305 63.9883C196.238 65.0312 196.033 65.791 195.689 66.2676C195.346 66.7441 194.834 66.9883 194.154 67H193.58L193.562 65.623L193.773 65.6055C194.078 65.582 194.301 65.4023 194.441 65.0664C194.582 64.7305 194.67 64.1582 194.705 63.3496L194.822 60.6602H199.598ZM202.715 62.5176H203.928C204.475 62.5176 204.955 62.6094 205.369 62.793C205.783 62.9766 206.1 63.2402 206.318 63.584C206.541 63.9238 206.652 64.3203 206.652 64.7734C206.652 65.4414 206.404 65.9805 205.908 66.3906C205.416 66.7969 204.744 67 203.893 67H201.016V60.6602H202.715V62.5176ZM202.715 63.877V65.6465H203.916C204.252 65.6465 204.51 65.5684 204.689 65.4121C204.869 65.2559 204.959 65.043 204.959 64.7734C204.959 64.5 204.871 64.2832 204.695 64.123C204.52 63.959 204.26 63.877 203.916 63.877H202.715ZM211.99 62.0195H209.957V67H208.258V62.0195H206.26V60.6602H211.99V62.0195Z" fill="black"/>
<path d="M190.287 45.752C190.6 45.752 190.854 45.666 191.049 45.4941C191.244 45.3223 191.346 45.0938 191.354 44.8086H192.941C192.938 45.2383 192.82 45.6328 192.59 45.9922C192.359 46.3477 192.043 46.625 191.641 46.8242C191.242 47.0195 190.801 47.1172 190.316 47.1172C189.41 47.1172 188.695 46.8301 188.172 46.2559C187.648 45.6777 187.387 44.8809 187.387 43.8652V43.7539C187.387 42.7773 187.646 41.998 188.166 41.416C188.686 40.834 189.398 40.543 190.305 40.543C191.098 40.543 191.732 40.7695 192.209 41.2227C192.689 41.6719 192.934 42.2715 192.941 43.0215H191.354C191.346 42.6934 191.244 42.4277 191.049 42.2246C190.854 42.0176 190.596 41.9141 190.275 41.9141C189.881 41.9141 189.582 42.0586 189.379 42.3477C189.18 42.6328 189.08 43.0977 189.08 43.7422V43.918C189.08 44.5703 189.18 45.0391 189.379 45.3242C189.578 45.6094 189.881 45.752 190.287 45.752ZM193.645 43.7715C193.645 43.1426 193.766 42.582 194.008 42.0898C194.25 41.5977 194.598 41.2168 195.051 40.9473C195.508 40.6777 196.037 40.543 196.639 40.543C197.494 40.543 198.191 40.8047 198.73 41.3281C199.273 41.8516 199.576 42.5625 199.639 43.4609L199.65 43.8945C199.65 44.8672 199.379 45.6484 198.836 46.2383C198.293 46.8242 197.564 47.1172 196.65 47.1172C195.736 47.1172 195.006 46.8242 194.459 46.2383C193.916 45.6523 193.645 44.8555 193.645 43.8477V43.7715ZM195.338 43.8945C195.338 44.4961 195.451 44.957 195.678 45.2773C195.904 45.5938 196.229 45.752 196.65 45.752C197.061 45.752 197.381 45.5957 197.611 45.2832C197.842 44.9668 197.957 44.4629 197.957 43.7715C197.957 43.1816 197.842 42.7246 197.611 42.4004C197.381 42.0762 197.057 41.9141 196.639 41.9141C196.225 41.9141 195.904 42.0762 195.678 42.4004C195.451 42.7207 195.338 43.2188 195.338 43.8945ZM206.207 47H204.508V42.0312H202.387V47H200.693V40.6602H206.207V47ZM213.209 43.8887C213.209 44.8652 212.986 45.6484 212.541 46.2383C212.1 46.8242 211.502 47.1172 210.748 47.1172C210.107 47.1172 209.59 46.8945 209.195 46.4492V49.4375H207.502V40.6602H209.072L209.131 41.2812C209.541 40.7891 210.076 40.543 210.736 40.543C211.518 40.543 212.125 40.832 212.559 41.4102C212.992 41.9883 213.209 42.7852 213.209 43.8008V43.8887ZM211.516 43.7656C211.516 43.1758 211.41 42.7207 211.199 42.4004C210.992 42.0801 210.689 41.9199 210.291 41.9199C209.76 41.9199 209.395 42.123 209.195 42.5293V45.125C209.402 45.543 209.771 45.752 210.303 45.752C211.111 45.752 211.516 45.0898 211.516 43.7656ZM217.938 47C217.859 46.8477 217.803 46.6582 217.768 46.4316C217.357 46.8887 216.824 47.1172 216.168 47.1172C215.547 47.1172 215.031 46.9375 214.621 46.5781C214.215 46.2188 214.012 45.7656 214.012 45.2188C214.012 44.5469 214.26 44.0312 214.756 43.6719C215.256 43.3125 215.977 43.1309 216.918 43.127H217.697V42.7637C217.697 42.4707 217.621 42.2363 217.469 42.0605C217.32 41.8848 217.084 41.7969 216.76 41.7969C216.475 41.7969 216.25 41.8652 216.086 42.002C215.926 42.1387 215.846 42.3262 215.846 42.5645H214.152C214.152 42.1973 214.266 41.8574 214.492 41.5449C214.719 41.2324 215.039 40.9883 215.453 40.8125C215.867 40.6328 216.332 40.543 216.848 40.543C217.629 40.543 218.248 40.7402 218.705 41.1348C219.166 41.5254 219.396 42.0762 219.396 42.7871V45.5352C219.4 46.1367 219.484 46.5918 219.648 46.9004V47H217.938ZM216.537 45.8223C216.787 45.8223 217.018 45.7676 217.229 45.6582C217.439 45.5449 217.596 45.3945 217.697 45.207V44.1172H217.064C216.217 44.1172 215.766 44.4102 215.711 44.9961L215.705 45.0957C215.705 45.3066 215.779 45.4805 215.928 45.6172C216.076 45.7539 216.279 45.8223 216.537 45.8223ZM226.193 47H224.494V44.5625H222.391V47H220.697V40.6602H222.391V43.2031H224.494V40.6602H226.193V47ZM227.242 43.7715C227.242 43.1426 227.363 42.582 227.605 42.0898C227.848 41.5977 228.195 41.2168 228.648 40.9473C229.105 40.6777 229.635 40.543 230.236 40.543C231.092 40.543 231.789 40.8047 232.328 41.3281C232.871 41.8516 233.174 42.5625 233.236 43.4609L233.248 43.8945C233.248 44.8672 232.977 45.6484 232.434 46.2383C231.891 46.8242 231.162 47.1172 230.248 47.1172C229.334 47.1172 228.604 46.8242 228.057 46.2383C227.514 45.6523 227.242 44.8555 227.242 43.8477V43.7715ZM228.936 43.8945C228.936 44.4961 229.049 44.957 229.275 45.2773C229.502 45.5938 229.826 45.752 230.248 45.752C230.658 45.752 230.979 45.5957 231.209 45.2832C231.439 44.9668 231.555 44.4629 231.555 43.7715C231.555 43.1816 231.439 42.7246 231.209 42.4004C230.979 42.0762 230.654 41.9141 230.236 41.9141C229.822 41.9141 229.502 42.0762 229.275 42.4004C229.049 42.7207 228.936 43.2188 228.936 43.8945ZM234.73 49.1387L233.846 48.6758L234.057 48.2949C234.318 47.8184 234.453 47.3438 234.461 46.8711V45.5586H235.891L235.885 46.7305C235.881 47.1641 235.771 47.6016 235.557 48.043C235.342 48.4844 235.066 48.8496 234.73 49.1387ZM244.07 45.002L245.729 40.6602H247.85V47H246.156V43.1094L244.639 47H243.502L242.014 43.1738V47H240.32V40.6602H242.424L244.07 45.002ZM252.244 47.1172C251.314 47.1172 250.557 46.832 249.971 46.2617C249.389 45.6914 249.098 44.9316 249.098 43.9824V43.8184C249.098 43.1816 249.221 42.6133 249.467 42.1133C249.713 41.6094 250.061 41.2227 250.51 40.9531C250.963 40.6797 251.479 40.543 252.057 40.543C252.924 40.543 253.605 40.8164 254.102 41.3633C254.602 41.9102 254.852 42.6855 254.852 43.6895V44.3809H250.814C250.869 44.7949 251.033 45.127 251.307 45.377C251.584 45.627 251.934 45.752 252.355 45.752C253.008 45.752 253.518 45.5156 253.885 45.043L254.717 45.9746C254.463 46.334 254.119 46.6152 253.686 46.8184C253.252 47.0176 252.771 47.1172 252.244 47.1172ZM252.051 41.9141C251.715 41.9141 251.441 42.0273 251.23 42.2539C251.023 42.4805 250.891 42.8047 250.832 43.2266H253.188V43.0918C253.18 42.7168 253.078 42.4277 252.883 42.2246C252.688 42.0176 252.41 41.9141 252.051 41.9141ZM261.332 40.6602V47H259.639V42.0312H258.145L258.039 43.9883C257.973 45.0312 257.768 45.791 257.424 46.2676C257.08 46.7441 256.568 46.9883 255.889 47H255.314L255.297 45.623L255.508 45.6055C255.812 45.582 256.035 45.4023 256.176 45.0664C256.316 44.7305 256.404 44.1582 256.439 43.3496L256.557 40.6602H261.332ZM262.375 43.7715C262.375 43.1426 262.496 42.582 262.738 42.0898C262.98 41.5977 263.328 41.2168 263.781 40.9473C264.238 40.6777 264.768 40.543 265.369 40.543C266.225 40.543 266.922 40.8047 267.461 41.3281C268.004 41.8516 268.307 42.5625 268.369 43.4609L268.381 43.8945C268.381 44.8672 268.109 45.6484 267.566 46.2383C267.023 46.8242 266.295 47.1172 265.381 47.1172C264.467 47.1172 263.736 46.8242 263.189 46.2383C262.646 45.6523 262.375 44.8555 262.375 43.8477V43.7715ZM264.068 43.8945C264.068 44.4961 264.182 44.957 264.408 45.2773C264.635 45.5938 264.959 45.752 265.381 45.752C265.791 45.752 266.111 45.5957 266.342 45.2832C266.572 44.9668 266.688 44.4629 266.688 43.7715C266.688 43.1816 266.572 42.7246 266.342 42.4004C266.111 42.0762 265.787 41.9141 265.369 41.9141C264.955 41.9141 264.635 42.0762 264.408 42.4004C264.182 42.7207 264.068 43.2188 264.068 43.8945ZM269.09 45.6348C269.473 45.2285 269.732 44.8262 269.869 44.4277C270.006 44.0293 270.082 43.4648 270.098 42.7344L270.145 40.6602H274.809V45.6348H275.723V48.9043H274.029V47H270.273V48.9043H268.545V45.6348H269.09ZM271.088 45.6348H273.121V42.0605H271.803L271.791 42.8223C271.756 43.9863 271.521 44.9238 271.088 45.6348ZM280.299 40.6602H281.992V47H280.299V43.0859L278.178 47H276.479V40.6602H278.178V44.5684L280.299 40.6602ZM288.572 40.6602V47H286.885V44.8086H285.812L284.594 47H282.877L284.26 44.5215C283.881 44.3457 283.588 44.1074 283.381 43.8066C283.178 43.5059 283.076 43.1641 283.076 42.7812C283.076 42.168 283.312 41.666 283.785 41.2754C284.262 40.8809 284.898 40.6758 285.695 40.6602H288.572ZM285.725 43.625H286.885V42.0195H285.783C285.482 42.0195 285.238 42.0996 285.051 42.2598C284.863 42.416 284.77 42.6074 284.77 42.834C284.77 43.0605 284.859 43.248 285.039 43.3965C285.219 43.5449 285.447 43.6211 285.725 43.625Z" fill="black"/>
<path d="M92.9941 133H91.3008V131.008C90.9844 131.066 90.6895 131.096 90.416 131.096C89.459 131.096 88.7383 130.893 88.2539 130.486C87.7695 130.08 87.5234 129.486 87.5156 128.705V126.66H89.209V128.705C89.2129 129.072 89.3027 129.336 89.4785 129.496C89.6543 129.652 89.9668 129.73 90.416 129.73C90.6973 129.73 90.9922 129.697 91.3008 129.631V126.66H92.9941V133ZM97.2129 133.117C96.2832 133.117 95.5254 132.832 94.9395 132.262C94.3574 131.691 94.0664 130.932 94.0664 129.982V129.818C94.0664 129.182 94.1895 128.613 94.4355 128.113C94.6816 127.609 95.0293 127.223 95.4785 126.953C95.9316 126.68 96.4473 126.543 97.0254 126.543C97.8926 126.543 98.5742 126.816 99.0703 127.363C99.5703 127.91 99.8203 128.686 99.8203 129.689V130.381H95.7832C95.8379 130.795 96.002 131.127 96.2754 131.377C96.5527 131.627 96.9023 131.752 97.3242 131.752C97.9766 131.752 98.4863 131.516 98.8535 131.043L99.6855 131.975C99.4316 132.334 99.0879 132.615 98.6543 132.818C98.2207 133.018 97.7402 133.117 97.2129 133.117ZM97.0195 127.914C96.6836 127.914 96.4102 128.027 96.1992 128.254C95.9922 128.48 95.8594 128.805 95.8008 129.227H98.1562V129.092C98.1484 128.717 98.0469 128.428 97.8516 128.225C97.6562 128.018 97.3789 127.914 97.0195 127.914ZM105.979 128.02H103.945V133H102.246V128.02H100.248V126.66H105.979V128.02ZM106.945 133V126.66H109.594C110.457 126.66 111.119 126.812 111.58 127.117C112.041 127.422 112.271 127.859 112.271 128.43C112.271 128.723 112.174 128.986 111.979 129.221C111.787 129.451 111.506 129.629 111.135 129.754C111.588 129.84 111.943 130.01 112.201 130.264C112.463 130.514 112.594 130.822 112.594 131.189C112.594 131.779 112.371 132.229 111.926 132.537C111.484 132.846 110.842 133 109.998 133H106.945ZM108.639 130.369V131.646H110.004C110.602 131.646 110.9 131.438 110.9 131.02C110.9 130.594 110.615 130.377 110.045 130.369H108.639ZM108.639 129.232H109.688C110.281 129.225 110.578 129.033 110.578 128.658C110.578 128.428 110.496 128.264 110.332 128.166C110.172 128.068 109.926 128.02 109.594 128.02H108.639V129.232ZM116.549 133.117C115.619 133.117 114.861 132.832 114.275 132.262C113.693 131.691 113.402 130.932 113.402 129.982V129.818C113.402 129.182 113.525 128.613 113.771 128.113C114.018 127.609 114.365 127.223 114.814 126.953C115.268 126.68 115.783 126.543 116.361 126.543C117.229 126.543 117.91 126.816 118.406 127.363C118.906 127.91 119.156 128.686 119.156 129.689V130.381H115.119C115.174 130.795 115.338 131.127 115.611 131.377C115.889 131.627 116.238 131.752 116.66 131.752C117.312 131.752 117.822 131.516 118.189 131.043L119.021 131.975C118.768 132.334 118.424 132.615 117.99 132.818C117.557 133.018 117.076 133.117 116.549 133.117ZM116.355 127.914C116.02 127.914 115.746 128.027 115.535 128.254C115.328 128.48 115.195 128.805 115.137 129.227H117.492V129.092C117.484 128.717 117.383 128.428 117.188 128.225C116.992 128.018 116.715 127.914 116.355 127.914ZM125.83 129.889C125.83 130.865 125.607 131.648 125.162 132.238C124.721 132.824 124.123 133.117 123.369 133.117C122.729 133.117 122.211 132.895 121.816 132.449V135.438H120.123V126.66H121.693L121.752 127.281C122.162 126.789 122.697 126.543 123.357 126.543C124.139 126.543 124.746 126.832 125.18 127.41C125.613 127.988 125.83 128.785 125.83 129.801V129.889ZM124.137 129.766C124.137 129.176 124.031 128.721 123.82 128.4C123.613 128.08 123.311 127.92 122.912 127.92C122.381 127.92 122.016 128.123 121.816 128.529V131.125C122.023 131.543 122.393 131.752 122.924 131.752C123.732 131.752 124.137 131.09 124.137 129.766ZM131.9 128.02H129.867V133H128.168V128.02H126.17V126.66H131.9V128.02ZM134.566 128.518H135.779C136.326 128.518 136.807 128.609 137.221 128.793C137.635 128.977 137.951 129.24 138.17 129.584C138.393 129.924 138.504 130.32 138.504 130.773C138.504 131.441 138.256 131.98 137.76 132.391C137.268 132.797 136.596 133 135.744 133H132.867V126.66H134.566V128.518ZM141.199 133H139.506V126.66H141.199V133ZM134.566 129.877V131.646H135.768C136.104 131.646 136.361 131.568 136.541 131.412C136.721 131.256 136.811 131.043 136.811 130.773C136.811 130.5 136.723 130.283 136.547 130.123C136.371 129.959 136.111 129.877 135.768 129.877H134.566ZM146.514 126.66H148.207V133H146.514V129.086L144.393 133H142.693V126.66H144.393V130.568L146.514 126.66ZM147.51 124.088C147.51 124.607 147.322 125.027 146.947 125.348C146.576 125.668 146.088 125.828 145.482 125.828C144.877 125.828 144.387 125.67 144.012 125.354C143.641 125.037 143.455 124.615 143.455 124.088H144.656C144.656 124.334 144.729 124.525 144.873 124.662C145.021 124.795 145.225 124.861 145.482 124.861C145.736 124.861 145.936 124.795 146.08 124.662C146.225 124.525 146.297 124.334 146.297 124.088H147.51Z" fill="black"/>
<rect x="107" y="77" width="38" height="2" fill="white"/>
<path d="M111.912 76.0195H109.879V81H108.18V76.0195H106.182V74.6602H111.912V76.0195ZM118.475 77.8887C118.475 78.8652 118.252 79.6484 117.807 80.2383C117.365 80.8242 116.768 81.1172 116.014 81.1172C115.373 81.1172 114.855 80.8945 114.461 80.4492V83.4375H112.768V74.6602H114.338L114.396 75.2812C114.807 74.7891 115.342 74.543 116.002 74.543C116.783 74.543 117.391 74.832 117.824 75.4102C118.258 75.9883 118.475 76.7852 118.475 77.8008V77.8887ZM116.781 77.7656C116.781 77.1758 116.676 76.7207 116.465 76.4004C116.258 76.0801 115.955 75.9199 115.557 75.9199C115.025 75.9199 114.66 76.123 114.461 76.5293V79.125C114.668 79.543 115.037 79.752 115.568 79.752C116.377 79.752 116.781 79.0898 116.781 77.7656ZM122.447 81.1172C121.518 81.1172 120.76 80.832 120.174 80.2617C119.592 79.6914 119.301 78.9316 119.301 77.9824V77.8184C119.301 77.1816 119.424 76.6133 119.67 76.1133C119.916 75.6094 120.264 75.2227 120.713 74.9531C121.166 74.6797 121.682 74.543 122.26 74.543C123.127 74.543 123.809 74.8164 124.305 75.3633C124.805 75.9102 125.055 76.6855 125.055 77.6895V78.3809H121.018C121.072 78.7949 121.236 79.127 121.51 79.377C121.787 79.627 122.137 79.752 122.559 79.752C123.211 79.752 123.721 79.5156 124.088 79.043L124.92 79.9746C124.666 80.334 124.322 80.6152 123.889 80.8184C123.455 81.0176 122.975 81.1172 122.447 81.1172ZM122.254 75.9141C121.918 75.9141 121.645 76.0273 121.434 76.2539C121.227 76.4805 121.094 76.8047 121.035 77.2266H123.391V77.0918C123.383 76.7168 123.281 76.4277 123.086 76.2246C122.891 76.0176 122.613 75.9141 122.254 75.9141ZM131.213 76.0195H129.18V81H127.48V76.0195H125.482V74.6602H131.213V76.0195ZM135.889 74.6602H137.582V81H135.889V77.0859L133.768 81H132.068V74.6602H133.768V78.5684L135.889 74.6602ZM142.697 74.6602H144.391V81H142.697V77.0859L140.576 81H138.877V74.6602H140.576V78.5684L142.697 74.6602ZM143.693 72.0879C143.693 72.6074 143.506 73.0273 143.131 73.3477C142.76 73.668 142.271 73.8281 141.666 73.8281C141.061 73.8281 140.57 73.6699 140.195 73.3535C139.824 73.0371 139.639 72.6152 139.639 72.0879H140.84C140.84 72.334 140.912 72.5254 141.057 72.6621C141.205 72.7949 141.408 72.8613 141.666 72.8613C141.92 72.8613 142.119 72.7949 142.264 72.6621C142.408 72.5254 142.48 72.334 142.48 72.0879H143.693Z" fill="black"/>
<rect x="106" y="63" width="40" height="2" fill="white"/>
<path d="M106.762 67V60.6602H109.41C110.273 60.6602 110.936 60.8125 111.396 61.1172C111.857 61.4219 112.088 61.8594 112.088 62.4297C112.088 62.7227 111.99 62.9863 111.795 63.2207C111.604 63.4512 111.322 63.6289 110.951 63.7539C111.404 63.8398 111.76 64.0098 112.018 64.2637C112.279 64.5137 112.41 64.8223 112.41 65.1895C112.41 65.7793 112.188 66.2285 111.742 66.5371C111.301 66.8457 110.658 67 109.814 67H106.762ZM108.455 64.3691V65.6465H109.82C110.418 65.6465 110.717 65.4375 110.717 65.0195C110.717 64.5938 110.432 64.377 109.861 64.3691H108.455ZM108.455 63.2324H109.504C110.098 63.2246 110.395 63.0332 110.395 62.6582C110.395 62.4277 110.312 62.2637 110.148 62.166C109.988 62.0684 109.742 62.0195 109.41 62.0195H108.455V63.2324ZM118.639 62.0195H116.605V67H114.906V62.0195H112.908V60.6602H118.639V62.0195ZM119.055 63.7715C119.055 63.1426 119.176 62.582 119.418 62.0898C119.66 61.5977 120.008 61.2168 120.461 60.9473C120.918 60.6777 121.447 60.543 122.049 60.543C122.904 60.543 123.602 60.8047 124.141 61.3281C124.684 61.8516 124.986 62.5625 125.049 63.4609L125.061 63.8945C125.061 64.8672 124.789 65.6484 124.246 66.2383C123.703 66.8242 122.975 67.1172 122.061 67.1172C121.146 67.1172 120.416 66.8242 119.869 66.2383C119.326 65.6523 119.055 64.8555 119.055 63.8477V63.7715ZM120.748 63.8945C120.748 64.4961 120.861 64.957 121.088 65.2773C121.314 65.5938 121.639 65.752 122.061 65.752C122.471 65.752 122.791 65.5957 123.021 65.2832C123.252 64.9668 123.367 64.4629 123.367 63.7715C123.367 63.1816 123.252 62.7246 123.021 62.4004C122.791 62.0762 122.467 61.9141 122.049 61.9141C121.635 61.9141 121.314 62.0762 121.088 62.4004C120.861 62.7207 120.748 63.2188 120.748 63.8945ZM131.811 63.8887C131.811 64.8652 131.588 65.6484 131.143 66.2383C130.701 66.8242 130.104 67.1172 129.35 67.1172C128.709 67.1172 128.191 66.8945 127.797 66.4492V69.4375H126.104V60.6602H127.674L127.732 61.2812C128.143 60.7891 128.678 60.543 129.338 60.543C130.119 60.543 130.727 60.832 131.16 61.4102C131.594 61.9883 131.811 62.7852 131.811 63.8008V63.8887ZM130.117 63.7656C130.117 63.1758 130.012 62.7207 129.801 62.4004C129.594 62.0801 129.291 61.9199 128.893 61.9199C128.361 61.9199 127.996 62.123 127.797 62.5293V65.125C128.004 65.543 128.373 65.752 128.904 65.752C129.713 65.752 130.117 65.0898 130.117 63.7656ZM132.602 63.7715C132.602 63.1426 132.723 62.582 132.965 62.0898C133.207 61.5977 133.555 61.2168 134.008 60.9473C134.465 60.6777 134.994 60.543 135.596 60.543C136.451 60.543 137.148 60.8047 137.688 61.3281C138.23 61.8516 138.533 62.5625 138.596 63.4609L138.607 63.8945C138.607 64.8672 138.336 65.6484 137.793 66.2383C137.25 66.8242 136.521 67.1172 135.607 67.1172C134.693 67.1172 133.963 66.8242 133.416 66.2383C132.873 65.6523 132.602 64.8555 132.602 63.8477V63.7715ZM134.295 63.8945C134.295 64.4961 134.408 64.957 134.635 65.2773C134.861 65.5938 135.186 65.752 135.607 65.752C136.018 65.752 136.338 65.5957 136.568 65.2832C136.799 64.9668 136.914 64.4629 136.914 63.7715C136.914 63.1816 136.799 62.7246 136.568 62.4004C136.338 62.0762 136.014 61.9141 135.596 61.9141C135.182 61.9141 134.861 62.0762 134.635 62.4004C134.408 62.7207 134.295 63.2188 134.295 63.8945ZM143.471 60.6602H145.164V67H143.471V63.0859L141.35 67H139.65V60.6602H141.35V64.5684L143.471 60.6602ZM144.467 58.0879C144.467 58.6074 144.279 59.0273 143.904 59.3477C143.533 59.668 143.045 59.8281 142.439 59.8281C141.834 59.8281 141.344 59.6699 140.969 59.3535C140.598 59.0371 140.412 58.6152 140.412 58.0879H141.613C141.613 58.334 141.686 58.5254 141.83 58.6621C141.979 58.7949 142.182 58.8613 142.439 58.8613C142.693 58.8613 142.893 58.7949 143.037 58.6621C143.182 58.5254 143.254 58.334 143.254 58.0879H144.467Z" fill="black"/>
<path d="M112.164 47H110.465V42.0312H108.344V47H106.65V40.6602H112.164V47ZM116.377 47.1172C115.447 47.1172 114.689 46.832 114.104 46.2617C113.521 45.6914 113.23 44.9316 113.23 43.9824V43.8184C113.23 43.1816 113.354 42.6133 113.6 42.1133C113.846 41.6094 114.193 41.2227 114.643 40.9531C115.096 40.6797 115.611 40.543 116.189 40.543C117.057 40.543 117.738 40.8164 118.234 41.3633C118.734 41.9102 118.984 42.6855 118.984 43.6895V44.3809H114.947C115.002 44.7949 115.166 45.127 115.439 45.377C115.717 45.627 116.066 45.752 116.488 45.752C117.141 45.752 117.65 45.5156 118.018 45.043L118.85 45.9746C118.596 46.334 118.252 46.6152 117.818 46.8184C117.385 47.0176 116.904 47.1172 116.377 47.1172ZM116.184 41.9141C115.848 41.9141 115.574 42.0273 115.363 42.2539C115.156 42.4805 115.023 42.8047 114.965 43.2266H117.32V43.0918C117.312 42.7168 117.211 42.4277 117.016 42.2246C116.82 42.0176 116.543 41.9141 116.184 41.9141ZM125.658 43.8887C125.658 44.8652 125.436 45.6484 124.99 46.2383C124.549 46.8242 123.951 47.1172 123.197 47.1172C122.557 47.1172 122.039 46.8945 121.645 46.4492V49.4375H119.951V40.6602H121.521L121.58 41.2812C121.99 40.7891 122.525 40.543 123.186 40.543C123.967 40.543 124.574 40.832 125.008 41.4102C125.441 41.9883 125.658 42.7852 125.658 43.8008V43.8887ZM123.965 43.7656C123.965 43.1758 123.859 42.7207 123.648 42.4004C123.441 42.0801 123.139 41.9199 122.74 41.9199C122.209 41.9199 121.844 42.123 121.645 42.5293V45.125C121.852 45.543 122.221 45.752 122.752 45.752C123.561 45.752 123.965 45.0898 123.965 43.7656ZM126.824 47V40.6602H129.473C130.336 40.6602 130.998 40.8125 131.459 41.1172C131.92 41.4219 132.15 41.8594 132.15 42.4297C132.15 42.7227 132.053 42.9863 131.857 43.2207C131.666 43.4512 131.385 43.6289 131.014 43.7539C131.467 43.8398 131.822 44.0098 132.08 44.2637C132.342 44.5137 132.473 44.8223 132.473 45.1895C132.473 45.7793 132.25 46.2285 131.805 46.5371C131.363 46.8457 130.721 47 129.877 47H126.824ZM128.518 44.3691V45.6465H129.883C130.48 45.6465 130.779 45.4375 130.779 45.0195C130.779 44.5938 130.494 44.377 129.924 44.3691H128.518ZM128.518 43.2324H129.566C130.16 43.2246 130.457 43.0332 130.457 42.6582C130.457 42.4277 130.375 42.2637 130.211 42.166C130.051 42.0684 129.805 42.0195 129.473 42.0195H128.518V43.2324ZM135.32 42.5176H136.533C137.08 42.5176 137.561 42.6094 137.975 42.793C138.389 42.9766 138.705 43.2402 138.924 43.584C139.146 43.9238 139.258 44.3203 139.258 44.7734C139.258 45.4414 139.01 45.9805 138.514 46.3906C138.021 46.7969 137.35 47 136.498 47H133.621V40.6602H135.32V42.5176ZM141.953 47H140.26V40.6602H141.953V47ZM135.32 43.877V45.6465H136.521C136.857 45.6465 137.115 45.5684 137.295 45.4121C137.475 45.2559 137.564 45.043 137.564 44.7734C137.564 44.5 137.477 44.2832 137.301 44.123C137.125 43.959 136.865 43.877 136.521 43.877H135.32ZM147.268 40.6602H148.961V47H147.268V43.0859L145.146 47H143.447V40.6602H145.146V44.5684L147.268 40.6602ZM148.264 38.0879C148.264 38.6074 148.076 39.0273 147.701 39.3477C147.33 39.668 146.842 39.8281 146.236 39.8281C145.631 39.8281 145.141 39.6699 144.766 39.3535C144.395 39.0371 144.209 38.6152 144.209 38.0879H145.41C145.41 38.334 145.482 38.5254 145.627 38.6621C145.775 38.7949 145.979 38.8613 146.236 38.8613C146.49 38.8613 146.689 38.7949 146.834 38.6621C146.979 38.5254 147.051 38.334 147.051 38.0879H148.264Z" fill="black"/>
</svg>
