<svg fill="none" xmlns="http://www.w3.org/2000/svg" viewBox="0 0 320 208"><path fill="#fff" d="M0 0h320v208H0z"/><path d="M40.85 90.374c-.583 2.988 2.663 9.19 9.195 9.393 7.896.245 12.941-5.553 10.59-15.015L48.85 32.536c-1.403-6.216-.35-9.587.4-11.597 1.998-5.36 6.992-7.57 8.208-5.855.694.98 2.372 5.561-2.405 13.767-3.727 6.4-21.063 14.792-22.335 29.81-1.101 13.06 13.14 22.705 25.433 18.913 8.161-2.518 12.369-14.407 7.317-20.54-13.331-16.184-34.71 8.585-14 15.37-2.252-1.7-3.787-3.017-4.073-4.627-2.783-15.672 21.767-11.534 15.152 3.334-2.72 6.114-13.706 7.296-19.963 1.842-5.241-4.57-7.567-13.37-1.734-19.69 7.9-8.558 17.226-16.24 19.703-27.956C63.482 11.453 53.917.652 47.871 14.28c-2.029 4.572-2.785 9.163-.842 17.959l11.778 53.327c.843 3.818.278 9.072-3.434 11.486-1.839 1.196-8.346 2.02-9.938-.836" fill="#000"/><path d="M40.85 90.374c-.583 2.988 2.663 9.19 9.195 9.393 7.896.245 12.941-5.553 10.59-15.015L48.85 32.536c-1.403-6.216-.35-9.587.4-11.597 1.998-5.36 6.992-7.57 8.208-5.855.694.98 2.372 5.561-2.405 13.767-3.727 6.4-21.063 14.792-22.335 29.81-1.101 13.06 13.14 22.705 25.433 18.913 8.161-2.518 12.369-14.407 7.317-20.54-13.331-16.184-34.71 8.585-14 15.37-2.252-1.7-3.787-3.017-4.073-4.627-2.783-15.672 21.767-11.534 15.152 3.334-2.72 6.114-13.706 7.296-19.963 1.842-5.241-4.57-7.567-13.37-1.734-19.69 7.9-8.558 17.226-16.24 19.703-27.956C63.482 11.453 53.917.652 47.871 14.28c-2.029 4.572-2.785 9.163-.842 17.959l11.778 53.327c.843 3.818.278 9.072-3.434 11.486-1.839 1.196-8.346 2.02-9.938-.836" stroke="#000" stroke-width=".101"/><path d="M40.76 90.823a5.366 5.366 0 011.7-3.804 5.63 5.63 0 013.957-1.517 5.613 5.613 0 013.895 1.659 5.35 5.35 0 011.551 3.862 5.367 5.367 0 01-1.7 3.804 5.63 5.63 0 01-3.958 1.517 5.613 5.613 0 01-3.895-1.658 5.349 5.349 0 01-1.55-3.863v0z" fill="#000" stroke="#000" stroke-width=".101"/><path d="M32.657 188.988c0-.5 2.128-2.557 4.728-4.572 5.591-4.33 9.63-9.069 11.978-14.055 5.386-11.434 3.68-23.357-3.498-24.445-3.97-.603-8.997 2.673-8.997 5.863 0 1.184.268 1.279 3.178 1.132 3.561-.18 5.97 3.74 4.044 6.579-3.046 4.485-10.38 1.908-10.38-3.647 0-4.868 2.62-8.743 7.23-10.694 9.868-4.175 19.26 3.522 18.438 15.109-.674 9.497-7.986 18.367-22.18 26.907-3.368 2.026-4.541 2.497-4.541 1.823zM67.453 152.245c0 1.933-1.323 3.5-2.955 3.5-1.631 0-2.954-1.567-2.954-3.5 0-1.934 1.323-3.501 2.954-3.501 1.632 0 2.955 1.567 2.955 3.501zM67.657 164.079c0 1.934-1.323 3.501-2.955 3.501-1.631 0-2.954-1.567-2.954-3.501 0-1.933 1.323-3.5 2.954-3.5 1.632 0 2.955 1.567 2.955 3.5z" fill="#000"/><path fill-rule="evenodd" clip-rule="evenodd" d="M20.621 21.235c-.543.032-1.12.607-2.101 2.019-1.987 2.63-4.836 8.789-5.975 12-1.707 6.738-2.267 14.931-1.698 22.84.28 2.628.84 8.477 1.698 13.16 1.418 11.134 1.709 15.818 1.709 20.501-.29 7.61-2.27 13.752-5.405 17.851-.57.584-.849 1.17-.849 1.47 0 .3.28.886.849 1.47 3.136 4.099 5.114 10.235 5.405 17.56 0 4.969-.291 9.647-1.709 20.481-.859 4.983-1.419 10.838-1.698 13.18-.569 8.195-.009 16.393 1.698 22.83 1.418 5.269 6.545 14.351 7.973 14.351.569 0 1.139-.593 1.139-1.18 0-.297-.57-1.166-1.14-2.05-3.414-4.969-4.845-9.95-5.414-17.561 0-4.683.291-9.079 1.708-20.2.57-4.384 1.14-9.654 1.429-11.71 1.138-14.048-1.132-26.051-6.823-34.831-.86-1.172-1.43-2.34-1.43-2.34s.57-1.178 1.43-2.35c5.691-8.78 7.961-20.784 6.823-35.131-.29-1.757-.86-7.02-1.429-11.7-1.417-10.825-1.708-15.227-1.708-19.91.569-7.611 2-12.592 5.415-17.561 1.138-1.757 1.428-2.335.86-2.92-.27-.184-.51-.284-.757-.269z" fill="#000"/><path stroke="#000" stroke-width="2" d="M26 22h285v178H26zM24.657 36H311M24.657 78H311M24.657 50H311M24.657 172H311M24.657 144H311M24.657 64H311M24.657 186H311M24.657 158H311M303 23v178M151 130h34"/><path d="M170.665 135.278c-3.291-.174-5.862-3.096-6.894-6.117-.625-1.772-.282-4.432 1.801-4.93 3.017-.513 5.522 2.051 6.925 4.504 1 1.819 1.552 4.684-.322 6.126-.445.299-.983.419-1.51.417zm5.243-10.357c-3.708-2.252-8.391-2.427-12.451-1.167-2.572.899-5.514 2.812-5.538 5.925-.002 3.051 2.837 4.954 5.349 5.86 3.976 1.301 8.564 1.186 12.277-.887 2.101-1.118 3.964-3.434 3.332-6-.347-1.65-1.611-2.885-2.969-3.731zM170.746 83.306c-3.291-.174-5.862-3.096-6.894-6.117-.625-1.772-.282-4.432 1.801-4.93 3.017-.513 5.521 2.05 6.925 4.504 1 1.819 1.552 4.684-.322 6.126-.445.299-.983.419-1.51.417zm5.243-10.357c-3.708-2.252-8.391-2.427-12.451-1.167-2.572.9-5.514 2.812-5.538 5.925-.002 3.05 2.837 4.954 5.348 5.86 3.977 1.3 8.565 1.186 12.278-.887 2.101-1.119 3.964-3.434 3.332-6-.347-1.65-1.611-2.885-2.969-3.73z" fill="#000"/><path d="M170.746 69.306c-3.291-.174-5.862-3.096-6.894-6.116-.625-1.773-.282-4.433 1.801-4.931 3.017-.513 5.521 2.05 6.925 4.504 1 1.819 1.552 4.684-.322 6.126-.445.299-.983.419-1.51.417zm5.243-10.357c-3.708-2.252-8.391-2.427-12.451-1.167-2.572.9-5.514 2.812-5.538 5.925-.002 3.05 2.837 4.954 5.348 5.86 3.977 1.3 8.565 1.186 12.278-.887 2.101-1.119 3.964-3.434 3.332-6-.347-1.65-1.611-2.885-2.969-3.73zM170.746 48.306c-3.291-.174-5.862-3.096-6.894-6.116-.625-1.773-.282-4.433 1.801-4.931 3.017-.513 5.521 2.05 6.925 4.504 1 1.819 1.552 4.684-.322 6.126-.445.299-.983.419-1.51.417zm5.243-10.357c-3.708-2.252-8.391-2.427-12.451-1.167-2.572.9-5.514 2.812-5.538 5.925-.002 3.05 2.837 4.954 5.348 5.86 3.977 1.3 8.565 1.186 12.278-.887 2.101-1.118 3.964-3.434 3.332-6-.347-1.65-1.611-2.885-2.969-3.73zM190.797 127.012c.812 0 1.461.269 1.945.808.485.539.727 1.272.727 2.198v.082c0 .914-.27 1.646-.809 2.197-.539.551-1.264.826-2.174.826-.914 0-1.642-.297-2.185-.891-.539-.597-.809-1.408-.809-2.431v-.281c.008-1.426.248-2.541.721-3.346.476-.809 1.191-1.319 2.144-1.529.5-.11.823-.217.967-.323a.533.533 0 00.217-.451h1.371c0 .613-.166 1.074-.498 1.383-.328.308-.914.547-1.758.715-.5.101-.894.299-1.183.592-.289.293-.485.705-.586 1.236.539-.524 1.175-.785 1.91-.785zm-.322 1.371c-.403 0-.719.135-.95.404-.226.27-.339.707-.339 1.313 0 .539.111.951.334 1.236.222.281.544.422.966.422.41 0 .727-.139.95-.416.222-.278.335-.686.339-1.225v-.14c0-.52-.115-.915-.345-1.184-.227-.273-.545-.41-.955-.41zm7.681 4.617a1.879 1.879 0 01-.17-.568c-.41.457-.943.685-1.599.685-.621 0-1.137-.179-1.547-.539a1.737 1.737 0 01-.61-1.359c0-.672.249-1.188.745-1.547.5-.36 1.22-.541 2.162-.545h.779v-.363c0-.293-.076-.528-.228-.703-.149-.176-.385-.264-.709-.264-.286 0-.51.068-.674.205a.701.701 0 00-.241.562h-1.693c0-.367.113-.707.34-1.019.227-.313.547-.557.961-.733a3.48 3.48 0 011.394-.269c.782 0 1.401.197 1.858.592.461.39.691.941.691 1.652v2.748c.004.602.088 1.057.252 1.365v.1h-1.711zm-1.4-1.178c.25 0 .48-.054.691-.164.211-.113.367-.263.469-.451v-1.09h-.633c-.847 0-1.299.293-1.353.879l-.006.1c0 .211.074.384.222.521.149.137.352.205.61.205zm6.797-.07c.312 0 .566-.086.761-.258a.901.901 0 00.305-.685h1.588a2.182 2.182 0 01-.352 1.183 2.33 2.33 0 01-.949.832c-.398.196-.84.293-1.324.293-.906 0-1.621-.287-2.144-.861-.524-.578-.786-1.375-.786-2.391v-.111c0-.977.26-1.756.78-2.338.519-.582 1.232-.873 2.138-.873.793 0 1.428.227 1.905.68.48.449.724 1.048.732 1.798h-1.588c-.008-.328-.109-.593-.305-.796-.195-.207-.453-.311-.773-.311-.395 0-.693.145-.896.434-.2.285-.299.75-.299 1.394v.176c0 .652.099 1.121.299 1.406.199.285.501.428.908.428z" fill="#000"/><path fill="#fff" d="M188 77h32v2h-32z"/><path d="M192.912 76.02h-2.033V81h-1.699v-4.98h-1.998v-1.36h5.73v1.36zm3.399 5.097c-.93 0-1.688-.285-2.274-.855-.582-.57-.873-1.33-.873-2.28v-.164c0-.636.123-1.205.369-1.705.246-.504.594-.89 1.043-1.16.453-.273.969-.41 1.547-.41.867 0 1.549.273 2.045.82.5.547.75 1.323.75 2.326v.692h-4.037c.055.414.219.746.492.996.277.25.627.375 1.049.375.652 0 1.162-.236 1.529-.709l.832.932c-.254.359-.597.64-1.031.843-.434.2-.914.3-1.441.3zm-.194-5.203c-.336 0-.609.113-.82.34-.207.227-.34.55-.399.973h2.356v-.135c-.008-.375-.109-.664-.305-.867-.195-.207-.472-.31-.832-.31zM205.381 81h-1.699v-2.438h-2.104V81h-1.693v-6.34h1.693v2.543h2.104V74.66h1.699V81zm1.049-3.228c0-.63.121-1.19.363-1.682s.59-.873 1.043-1.143c.457-.27.986-.404 1.588-.404.855 0 1.553.262 2.092.785.543.524.845 1.234.908 2.133l.012.433c0 .973-.272 1.754-.815 2.344-.543.586-1.271.88-2.185.88-.915 0-1.645-.294-2.192-.88-.543-.586-.814-1.382-.814-2.39v-.076zm1.693.122c0 .602.113 1.063.34 1.383.226.317.551.475.973.475.41 0 .73-.156.96-.469.231-.316.346-.82.346-1.511 0-.59-.115-1.047-.346-1.372-.23-.324-.554-.486-.972-.486-.414 0-.735.162-.961.486-.227.32-.34.819-.34 1.494zm11.063-.005c0 .976-.223 1.76-.668 2.35-.442.585-1.039.878-1.793.878-.641 0-1.159-.223-1.553-.668v2.989h-1.693V74.66h1.57l.058.621c.411-.492.946-.738 1.606-.738.781 0 1.389.289 1.822.867.434.578.651 1.375.651 2.39v.089zm-1.694-.123c0-.59-.105-1.045-.316-1.366-.207-.32-.51-.48-.908-.48-.532 0-.897.203-1.096.61v2.595c.207.418.576.627 1.107.627.809 0 1.213-.662 1.213-1.986z" fill="#000"/><path fill="#fff" d="M187 63h24v2h-24z"/><path d="M191.324 67a1.88 1.88 0 01-.17-.568c-.41.457-.943.685-1.599.685-.621 0-1.137-.18-1.547-.539a1.739 1.739 0 01-.61-1.36c0-.671.248-1.187.745-1.546.5-.36 1.22-.541 2.162-.545h.779v-.363c0-.293-.076-.528-.229-.704-.148-.175-.384-.263-.709-.263-.285 0-.509.068-.673.205-.161.137-.241.324-.241.563h-1.693c0-.368.113-.708.34-1.02.226-.313.547-.557.961-.733.414-.18.879-.269 1.394-.269.782 0 1.401.197 1.858.592.461.39.691.941.691 1.652v2.748c.004.602.088 1.057.252 1.365v.1h-1.711zm-1.4-1.178c.25 0 .48-.054.691-.164.211-.113.367-.264.469-.451v-1.09h-.633c-.847 0-1.299.293-1.353.88l-.006.099c0 .21.074.385.222.521.149.137.352.205.61.205zm9.674-5.162V67h-1.694v-4.969h-1.494l-.105 1.957c-.067 1.043-.272 1.803-.616 2.28-.343.476-.855.72-1.535.732h-.574l-.018-1.377.211-.017c.305-.024.528-.204.668-.54.141-.335.229-.908.264-1.716l.117-2.69h4.776zm3.117 1.858h1.213c.547 0 1.027.091 1.441.275.414.184.731.447.949.791.223.34.334.736.334 1.19 0 .667-.248 1.207-.744 1.617-.492.406-1.164.609-2.015.609h-2.877v-6.34h1.699v1.858zm0 1.359v1.77h1.201c.336 0 .594-.079.773-.235.18-.156.27-.369.27-.639 0-.273-.088-.49-.264-.65-.175-.164-.435-.246-.779-.246h-1.201zm9.275-1.858h-2.033V67h-1.699v-4.98h-1.998v-1.36h5.73v1.36zM190.287 45.752c.313 0 .567-.086.762-.258a.905.905 0 00.305-.685h1.587c-.003.43-.121.824-.351 1.183a2.349 2.349 0 01-.949.832c-.399.196-.84.293-1.325.293-.906 0-1.621-.287-2.144-.861-.524-.578-.785-1.375-.785-2.39v-.112c0-.977.259-1.756.779-2.338.52-.582 1.232-.873 2.139-.873.793 0 1.427.227 1.904.68.48.449.725 1.049.732 1.799h-1.587c-.008-.329-.11-.594-.305-.797-.195-.207-.453-.31-.774-.31-.394 0-.693.144-.896.433-.199.285-.299.75-.299 1.394v.176c0 .652.1 1.121.299 1.406.199.285.502.428.908.428zm3.358-1.98c0-.63.121-1.19.363-1.682s.59-.873 1.043-1.143c.457-.27.986-.404 1.588-.404.855 0 1.552.262 2.091.785.543.524.846 1.234.909 2.133l.011.434c0 .972-.271 1.753-.814 2.343-.543.586-1.272.88-2.186.88-.914 0-1.644-.294-2.191-.88-.543-.586-.814-1.383-.814-2.39v-.076zm1.693.123c0 .601.113 1.062.34 1.382.226.317.551.475.972.475.411 0 .731-.156.961-.469.231-.316.346-.82.346-1.511 0-.59-.115-1.047-.346-1.372-.23-.324-.554-.486-.972-.486-.414 0-.735.162-.961.486-.227.32-.34.819-.34 1.495zM206.207 47h-1.699v-4.969h-2.121V47h-1.694v-6.34h5.514V47zm7.002-3.111c0 .976-.223 1.76-.668 2.35-.441.585-1.039.878-1.793.878-.641 0-1.158-.222-1.553-.668v2.989h-1.693V40.66h1.57l.059.621c.41-.492.945-.738 1.605-.738.782 0 1.389.289 1.823.867.433.578.65 1.375.65 2.39v.089zm-1.693-.123c0-.59-.106-1.045-.317-1.366-.207-.32-.51-.48-.908-.48-.531 0-.896.203-1.096.61v2.595c.207.418.576.627 1.108.627.808 0 1.213-.662 1.213-1.986zM217.938 47a1.851 1.851 0 01-.17-.568c-.411.457-.944.685-1.6.685-.621 0-1.137-.18-1.547-.539a1.738 1.738 0 01-.609-1.36c0-.671.248-1.187.744-1.546.5-.36 1.221-.541 2.162-.545h.779v-.363c0-.293-.076-.528-.228-.704-.149-.175-.385-.263-.709-.263-.285 0-.51.068-.674.205-.16.137-.24.324-.24.563h-1.694c0-.368.114-.708.34-1.02.227-.313.547-.557.961-.733a3.47 3.47 0 011.395-.269c.781 0 1.4.197 1.857.592.461.39.691.941.691 1.652v2.748c.004.602.088 1.057.252 1.365v.1h-1.71zm-1.401-1.178c.25 0 .481-.054.692-.164.21-.113.367-.264.468-.451v-1.09h-.633c-.847 0-1.298.293-1.353.88l-.006.099c0 .21.074.385.223.521.148.137.351.205.609.205zM226.193 47h-1.699v-2.438h-2.103V47h-1.694v-6.34h1.694v2.543h2.103V40.66h1.699V47zm1.049-3.228c0-.63.121-1.19.363-1.682a2.67 2.67 0 011.043-1.143c.457-.27.987-.404 1.588-.404.856 0 1.553.262 2.092.785.543.524.846 1.234.908 2.133l.012.434c0 .972-.271 1.753-.814 2.343-.543.586-1.272.88-2.186.88-.914 0-1.644-.294-2.191-.88-.543-.586-.815-1.383-.815-2.39v-.076zm1.694.123c0 .601.113 1.062.339 1.382.227.317.551.475.973.475.41 0 .731-.156.961-.469.23-.316.346-.82.346-1.511 0-.59-.116-1.047-.346-1.372-.23-.324-.555-.486-.973-.486-.414 0-.734.162-.961.486-.226.32-.339.819-.339 1.495zm5.794 5.244l-.884-.463.211-.381c.261-.477.396-.951.404-1.424V45.56h1.43l-.006 1.172a3.057 3.057 0 01-.328 1.312 3.368 3.368 0 01-.827 1.096zm9.34-4.137l1.659-4.342h2.121V47h-1.694v-3.89L244.639 47h-1.137l-1.488-3.826V47h-1.694v-6.34h2.104l1.646 4.342zm8.174 2.115c-.93 0-1.687-.285-2.273-.855-.582-.57-.873-1.33-.873-2.28v-.164c0-.636.123-1.205.369-1.705.246-.504.594-.89 1.043-1.16.453-.273.969-.41 1.547-.41.867 0 1.548.273 2.045.82.5.547.75 1.322.75 2.327v.69h-4.038c.055.415.219.747.493.997.277.25.627.375 1.048.375.653 0 1.163-.236 1.53-.709l.832.932c-.254.359-.598.64-1.031.843-.434.2-.915.3-1.442.3zm-.193-5.203c-.336 0-.61.113-.821.34-.207.227-.339.55-.398.973h2.356v-.135c-.008-.375-.11-.664-.305-.867-.195-.207-.473-.31-.832-.31zm9.281-1.254V47h-1.693v-4.969h-1.494l-.106 1.957c-.066 1.043-.271 1.803-.615 2.28-.344.476-.856.72-1.535.732h-.575l-.017-1.377.211-.017c.304-.024.527-.204.668-.54.14-.336.228-.908.263-1.716l.118-2.69h4.775zm1.043 3.112c0-.63.121-1.19.363-1.682s.59-.873 1.043-1.143c.457-.27.987-.404 1.588-.404.856 0 1.553.262 2.092.785.543.524.846 1.234.908 2.133l.012.434c0 .972-.272 1.753-.815 2.343-.543.586-1.271.88-2.185.88-.914 0-1.645-.294-2.192-.88-.543-.586-.814-1.383-.814-2.39v-.076zm1.693.123c0 .601.114 1.062.34 1.382.227.317.551.475.973.475.41 0 .73-.156.961-.469.23-.316.346-.82.346-1.511 0-.59-.116-1.047-.346-1.372-.231-.324-.555-.486-.973-.486-.414 0-.734.162-.961.486-.226.32-.34.819-.34 1.495zm5.022 1.74c.383-.407.642-.809.779-1.207.137-.399.213-.963.229-1.694l.047-2.074h4.664v4.975h.914v3.27h-1.694V47h-3.756v1.904h-1.728v-3.27h.545zm1.998 0h2.033V42.06h-1.318l-.012.762c-.035 1.164-.27 2.102-.703 2.813zm9.211-4.975h1.693V47h-1.693v-3.914L278.178 47h-1.699v-6.34h1.699v3.908l2.121-3.908zm8.273 0V47h-1.687v-2.191h-1.073L284.594 47h-1.717l1.383-2.478a2.118 2.118 0 01-.879-.715 1.79 1.79 0 01-.305-1.026c0-.613.236-1.115.709-1.506.477-.394 1.113-.6 1.91-.615h2.877zm-2.847 2.965h1.16V42.02h-1.102c-.301 0-.545.08-.732.24a.719.719 0 00-.281.574c0 .226.089.414.269.563.18.148.408.224.686.228zM92.994 133h-1.693v-1.992a4.93 4.93 0 01-.885.088c-.957 0-1.678-.203-2.162-.61-.485-.406-.73-1-.738-1.781v-2.045h1.693v2.045c.004.367.094.631.27.791.175.156.488.234.937.234.281 0 .576-.033.885-.099v-2.971h1.693V133zm4.219.117c-.93 0-1.688-.285-2.273-.855-.583-.571-.874-1.33-.874-2.28v-.164c0-.636.123-1.205.37-1.705.246-.504.593-.89 1.042-1.16.454-.273.97-.41 1.547-.41.868 0 1.55.273 2.045.82.5.547.75 1.323.75 2.326v.692h-4.037c.055.414.219.746.492.996.278.25.627.375 1.05.375.652 0 1.161-.236 1.528-.709l.833.932c-.254.359-.598.64-1.032.843a3.4 3.4 0 01-1.441.299zm-.194-5.203c-.335 0-.609.113-.82.34-.207.226-.34.551-.398.973h2.355v-.135c-.008-.375-.11-.664-.304-.867-.196-.207-.473-.311-.833-.311zm8.96.106h-2.034V133h-1.699v-4.98h-1.998v-1.36h5.731v1.36zm.966 4.98v-6.34h2.649c.863 0 1.525.152 1.986.457.461.305.691.742.691 1.313 0 .293-.097.556-.292.791-.192.23-.473.408-.844.533.453.086.808.256 1.066.51.262.25.393.558.393.925 0 .59-.223 1.04-.668 1.348-.442.309-1.084.463-1.928.463h-3.053zm1.694-2.631v1.277h1.365c.598 0 .896-.208.896-.626 0-.426-.285-.643-.855-.651h-1.406zm0-1.137h1.049c.593-.007.89-.199.89-.574 0-.23-.082-.394-.246-.492-.16-.098-.406-.146-.738-.146h-.955v1.212zm7.91 3.885c-.93 0-1.688-.285-2.274-.855-.582-.571-.873-1.33-.873-2.28v-.164c0-.636.123-1.205.369-1.705.247-.504.594-.89 1.043-1.16.454-.273.969-.41 1.547-.41.868 0 1.549.273 2.045.82.5.547.75 1.323.75 2.326v.692h-4.037c.055.414.219.746.492.996.278.25.627.375 1.049.375.652 0 1.162-.236 1.529-.709l.832.932c-.253.359-.597.64-1.031.843-.433.2-.914.299-1.441.299zm-.194-5.203c-.335 0-.609.113-.82.34-.207.226-.34.551-.398.973h2.355v-.135c-.008-.375-.109-.664-.304-.867-.196-.207-.473-.311-.833-.311zm9.475 1.975c0 .976-.223 1.759-.668 2.349-.441.586-1.039.879-1.793.879-.64 0-1.158-.222-1.553-.668v2.989h-1.693v-8.778h1.57l.059.621c.41-.492.945-.738 1.605-.738.782 0 1.389.289 1.823.867.433.578.65 1.375.65 2.391v.088zm-1.693-.123c0-.59-.106-1.045-.317-1.366-.207-.32-.509-.48-.908-.48-.531 0-.896.203-1.096.609v2.596c.207.418.577.627 1.108.627.808 0 1.213-.662 1.213-1.986zm7.763-1.746h-2.033V133h-1.699v-4.98h-1.998v-1.36h5.73v1.36zm2.666.498h1.213c.547 0 1.028.091 1.442.275.414.184.73.447.949.791.223.34.334.736.334 1.189 0 .668-.248 1.207-.744 1.618-.492.406-1.164.609-2.016.609h-2.877v-6.34h1.699v1.858zm6.633 4.482h-1.693v-6.34h1.693V133zm-6.633-3.123v1.769h1.202c.336 0 .593-.078.773-.234.18-.156.27-.369.27-.639 0-.273-.088-.49-.264-.65-.176-.164-.436-.246-.779-.246h-1.202zm11.948-3.217h1.693V133h-1.693v-3.914L144.393 133h-1.7v-6.34h1.7v3.908l2.121-3.908zm.996-2.572c0 .519-.188.939-.563 1.26-.371.32-.859.48-1.465.48-.605 0-1.095-.158-1.47-.474-.371-.317-.557-.739-.557-1.266h1.201c0 .246.073.437.217.574.148.133.352.199.609.199.254 0 .454-.066.598-.199.145-.137.217-.328.217-.574h1.213z" fill="#000"/><path fill="#fff" d="M107 77h38v2h-38z"/><path d="M111.912 76.02h-2.033V81h-1.699v-4.98h-1.998v-1.36h5.73v1.36zm6.563 1.869c0 .976-.223 1.76-.668 2.35-.442.585-1.039.878-1.793.878-.641 0-1.159-.223-1.553-.668v2.989h-1.693V74.66h1.57l.058.621c.411-.492.946-.738 1.606-.738.781 0 1.389.289 1.822.867.434.578.651 1.375.651 2.39v.089zm-1.694-.123c0-.59-.105-1.045-.316-1.366-.207-.32-.51-.48-.908-.48-.532 0-.897.203-1.096.61v2.595c.207.418.576.627 1.107.627.809 0 1.213-.662 1.213-1.986zm5.666 3.351c-.929 0-1.687-.285-2.273-.855-.582-.57-.873-1.33-.873-2.28v-.164c0-.636.123-1.205.369-1.705.246-.504.594-.89 1.043-1.16.453-.273.969-.41 1.547-.41.867 0 1.549.273 2.045.82.5.547.75 1.323.75 2.326v.692h-4.037c.054.414.218.746.492.996.277.25.627.375 1.049.375.652 0 1.162-.236 1.529-.709l.832.932c-.254.359-.598.64-1.031.843-.434.2-.914.3-1.442.3zm-.193-5.203c-.336 0-.609.113-.82.34-.207.227-.34.55-.399.973h2.356v-.135c-.008-.375-.11-.664-.305-.867-.195-.207-.473-.31-.832-.31zm8.959.105h-2.033V81h-1.7v-4.98h-1.998v-1.36h5.731v1.36zm4.676-1.359h1.693V81h-1.693v-3.914L133.768 81h-1.7v-6.34h1.7v3.908l2.121-3.908zm6.808 0h1.694V81h-1.694v-3.914L140.576 81h-1.699v-6.34h1.699v3.908l2.121-3.908zm.996-2.572c0 .52-.187.94-.562 1.26-.371.32-.86.48-1.465.48-.605 0-1.096-.158-1.471-.475-.371-.316-.556-.738-.556-1.265h1.201c0 .246.072.437.217.574.148.133.351.2.609.2.254 0 .453-.067.598-.2.144-.137.216-.328.216-.574h1.213z" fill="#000"/><path fill="#fff" d="M106 63h40v2h-40z"/><path d="M106.762 67v-6.34h2.648c.863 0 1.526.153 1.986.457.461.305.692.742.692 1.313 0 .293-.098.556-.293.79-.191.231-.473.409-.844.534.453.086.809.256 1.067.51.261.25.392.558.392.925 0 .59-.222 1.04-.668 1.348-.441.309-1.084.463-1.928.463h-3.052zm1.693-2.63v1.276h1.365c.598 0 .897-.209.897-.627 0-.425-.285-.642-.856-.65h-1.406zm0-1.138h1.049c.594-.007.891-.199.891-.574 0-.23-.083-.394-.247-.492-.16-.098-.406-.146-.738-.146h-.955v1.212zm10.184-1.212h-2.034V67h-1.699v-4.98h-1.998v-1.36h5.731v1.36zm.416 1.752c0-.63.121-1.19.363-1.682s.59-.873 1.043-1.143c.457-.27.986-.404 1.588-.404.855 0 1.553.262 2.092.785.543.524.845 1.234.908 2.133l.012.434c0 .972-.272 1.753-.815 2.343-.543.586-1.271.88-2.185.88-.915 0-1.645-.294-2.192-.88-.543-.586-.814-1.382-.814-2.39v-.076zm1.693.123c0 .601.113 1.062.34 1.382.226.317.551.475.973.475.41 0 .73-.156.96-.469.231-.316.346-.82.346-1.511 0-.59-.115-1.047-.346-1.372-.23-.324-.554-.486-.972-.486-.414 0-.735.162-.961.486-.227.32-.34.819-.34 1.495zm11.063-.006c0 .976-.223 1.76-.668 2.35-.442.585-1.039.878-1.793.878-.641 0-1.159-.223-1.553-.668v2.989h-1.693V60.66h1.57l.058.621c.411-.492.946-.738 1.606-.738.781 0 1.389.289 1.822.867.434.578.651 1.375.651 2.39v.089zm-1.694-.123c0-.59-.105-1.045-.316-1.366-.207-.32-.51-.48-.908-.48-.532 0-.897.203-1.096.61v2.595c.207.418.576.627 1.107.627.809 0 1.213-.662 1.213-1.986zm2.485.006c0-.63.121-1.19.363-1.682s.59-.873 1.043-1.143c.457-.27.986-.404 1.588-.404.855 0 1.552.262 2.092.785.542.524.845 1.234.908 2.133l.011.434c0 .972-.271 1.753-.814 2.343-.543.586-1.272.88-2.186.88-.914 0-1.644-.294-2.191-.88-.543-.586-.814-1.382-.814-2.39v-.076zm1.693.123c0 .601.113 1.062.34 1.382.226.317.551.475.972.475.411 0 .731-.156.961-.469.231-.316.346-.82.346-1.511 0-.59-.115-1.047-.346-1.372-.23-.324-.554-.486-.972-.486-.414 0-.735.162-.961.486-.227.32-.34.819-.34 1.495zm9.176-3.235h1.693V67h-1.693v-3.914L141.35 67h-1.7v-6.34h1.7v3.908l2.121-3.908zm.996-2.572c0 .52-.188.94-.563 1.26-.371.32-.859.48-1.465.48-.605 0-1.095-.158-1.47-.475-.371-.316-.557-.738-.557-1.265h1.201c0 .246.073.437.217.574.149.133.352.2.609.2.254 0 .454-.067.598-.2.145-.137.217-.328.217-.574h1.213zM112.164 47h-1.699v-4.969h-2.121V47h-1.694v-6.34h5.514V47zm4.213.117c-.93 0-1.688-.285-2.273-.855-.583-.57-.874-1.33-.874-2.28v-.164c0-.636.124-1.205.37-1.705.246-.504.593-.89 1.043-1.16.453-.273.968-.41 1.546-.41.868 0 1.549.273 2.045.82.5.547.75 1.322.75 2.327v.69h-4.037c.055.415.219.747.492.997.278.25.627.375 1.049.375.653 0 1.162-.236 1.53-.709l.832.932c-.254.359-.598.64-1.032.843a3.41 3.41 0 01-1.441.3zm-.193-5.203c-.336 0-.61.113-.821.34-.207.227-.34.55-.398.973h2.355v-.135c-.008-.375-.109-.664-.304-.867-.196-.207-.473-.31-.832-.31zm9.474 1.975c0 .976-.222 1.76-.668 2.35-.441.585-1.039.878-1.793.878-.64 0-1.158-.222-1.552-.668v2.989h-1.694V40.66h1.57l.059.621c.41-.492.945-.738 1.606-.738.781 0 1.388.289 1.822.867.433.578.65 1.375.65 2.39v.089zm-1.693-.123c0-.59-.106-1.045-.317-1.366-.207-.32-.509-.48-.908-.48-.531 0-.896.203-1.095.61v2.595c.207.418.576.627 1.107.627.809 0 1.213-.662 1.213-1.986zM126.824 47v-6.34h2.649c.863 0 1.525.153 1.986.457.461.305.691.742.691 1.313a1.2 1.2 0 01-.293.79c-.191.231-.472.409-.843.534.453.086.808.256 1.066.51.262.25.393.558.393.925 0 .59-.223 1.04-.668 1.348-.442.309-1.084.463-1.928.463h-3.053zm1.694-2.63v1.277h1.365c.597 0 .896-.21.896-.627 0-.426-.285-.643-.855-.65h-1.406zm0-1.138h1.048c.594-.007.891-.199.891-.574 0-.23-.082-.394-.246-.492-.16-.098-.406-.146-.738-.146h-.955v1.212zm6.802-.714h1.213c.547 0 1.028.091 1.442.275.414.184.73.447.949.791.222.34.334.736.334 1.19 0 .667-.248 1.206-.744 1.617-.493.406-1.164.609-2.016.609h-2.877v-6.34h1.699v1.858zM141.953 47h-1.693v-6.34h1.693V47zm-6.633-3.123v1.77h1.201c.336 0 .594-.079.774-.235.18-.156.269-.369.269-.639 0-.273-.087-.49-.263-.65-.176-.164-.436-.246-.78-.246h-1.201zm11.948-3.217h1.693V47h-1.693v-3.914L145.146 47h-1.699v-6.34h1.699v3.908l2.122-3.908zm.996-2.572c0 .52-.188.94-.563 1.26-.371.32-.859.48-1.465.48-.605 0-1.095-.158-1.47-.475-.371-.316-.557-.738-.557-1.265h1.201c0 .246.072.437.217.574.148.133.352.2.609.2.254 0 .453-.067.598-.2.145-.137.217-.328.217-.574h1.213z" fill="#000"/></svg>