<svg width="792" height="293" viewBox="0 0 792 293" fill="none" xmlns="http://www.w3.org/2000/svg">
<rect width="792" height="293" fill="white"/>
<line x1="414" y1="101" x2="776.955" y2="101" stroke="black" stroke-width="2"/>
<line x1="414" y1="143" x2="776.955" y2="143" stroke="black" stroke-width="2"/>
<line x1="414" y1="115" x2="776.955" y2="115" stroke="black" stroke-width="2"/>
<line x1="414" y1="237" x2="776.955" y2="237" stroke="black" stroke-width="2"/>
<line x1="414" y1="209" x2="776.955" y2="209" stroke="black" stroke-width="2"/>
<line x1="414" y1="129" x2="776.955" y2="129" stroke="black" stroke-width="2"/>
<line x1="414" y1="251" x2="776.955" y2="251" stroke="black" stroke-width="2"/>
<line x1="414" y1="223" x2="776.955" y2="223" stroke="black" stroke-width="2"/>
<line x1="768" y1="86" x2="768" y2="264" stroke="black" stroke-width="2"/>
<rect x="416" y="87" width="360" height="178" stroke="black" stroke-width="2"/>
<path fill-rule="evenodd" clip-rule="evenodd" d="M673.079 277.205L671.079 277.205L671.079 220.581C670.665 218.164 671.891 215.043 674.477 212.407C674.638 212.244 674.816 212.092 674.994 211.938L674.995 211.938L674.995 211.938C675.084 211.861 675.175 211.784 675.263 211.705C679.495 207.918 685.071 206.86 687.71 209.344C690.349 211.827 689.056 216.917 684.824 220.703C680.937 224.181 675.916 225.357 673.079 223.602L673.079 277.205ZM677.382 213.982L677.382 213.982C677.476 213.901 677.57 213.82 677.665 213.735C681.273 210.507 685.323 208.942 686.705 210.243C688.087 211.544 686.281 215.22 682.673 218.448C679.066 221.676 675.016 223.241 673.634 221.94C672.359 220.74 673.79 217.49 676.848 214.466C677.02 214.296 677.199 214.141 677.382 213.982ZM700.5 214L703.04 214L703.04 201.186L702.768 201.186L697.468 203.084L697.468 205.149L700.5 204.209L700.5 214Z" fill="black"/>
<path fill-rule="evenodd" clip-rule="evenodd" d="M577.079 277.205L575.079 277.205L575.079 220.581C574.665 218.164 575.891 215.043 578.478 212.407C578.638 212.244 578.816 212.092 578.994 211.938L578.995 211.938L578.995 211.938C579.084 211.861 579.175 211.784 579.263 211.705C583.495 207.918 589.072 206.86 591.71 209.344C594.349 211.827 593.056 216.917 588.824 220.703C584.937 224.181 579.916 225.357 577.079 223.602L577.079 277.205ZM581.382 213.982L581.383 213.982C581.476 213.901 581.57 213.82 581.665 213.735C585.273 210.507 589.323 208.942 590.705 210.243C592.087 211.544 590.281 215.22 586.673 218.448C583.066 221.676 579.016 223.241 577.634 221.94C576.359 220.74 577.79 217.49 580.848 214.466C581.02 214.296 581.199 214.141 581.382 213.982ZM604.5 214L607.04 214L607.04 201.186L606.768 201.186L601.468 203.084L601.468 205.149L604.5 204.209L604.5 214Z" fill="black"/>
<path fill-rule="evenodd" clip-rule="evenodd" d="M481.079 277.205L479.079 277.205L479.079 220.581C478.666 218.164 479.892 215.043 482.478 212.407C482.638 212.244 482.816 212.091 482.995 211.938C483.085 211.861 483.175 211.784 483.263 211.705C487.495 207.918 493.072 206.86 495.711 209.344C498.349 211.827 497.056 216.917 492.824 220.703C488.937 224.181 483.916 225.357 481.079 223.602L481.079 277.205ZM485.383 213.982L485.383 213.982C485.476 213.901 485.57 213.82 485.666 213.735C489.273 210.507 493.323 208.942 494.705 210.243C496.087 211.544 494.281 215.22 490.674 218.448C487.066 221.676 483.016 223.241 481.634 221.94C480.36 220.74 481.79 217.49 484.849 214.466C485.02 214.296 485.199 214.141 485.383 213.982ZM508.5 214L511.04 214L511.04 201.186L510.768 201.186L505.468 203.084L505.468 205.149L508.5 204.209L508.5 214Z" fill="black"/>
<path fill-rule="evenodd" clip-rule="evenodd" d="M684.629 44.0117L689.504 29.9375H691.965L685.637 47H683.645L677.328 29.9375H679.777L684.629 44.0117ZM690 75H688V93.6035C685.162 91.848 680.142 93.0238 676.255 96.5018C672.023 100.289 670.729 105.378 673.368 107.862C674.48 108.908 676.114 109.326 677.948 109.176C677.368 109.571 676.8 110.014 676.255 110.502C672.023 114.289 670.729 119.378 673.368 121.862C676.007 124.345 681.583 123.288 685.816 119.501C685.904 119.422 685.994 119.344 686.084 119.267L686.084 119.267L686.084 119.267L686.084 119.267L686.084 119.267L686.084 119.267C686.263 119.114 686.441 118.961 686.601 118.798C687.124 118.265 687.591 117.713 688 117.15V128.603C685.162 126.848 680.142 128.024 676.255 131.502C672.023 135.289 670.73 140.378 673.368 142.861C676.007 145.345 681.584 144.288 685.816 140.501C685.904 140.422 685.994 140.344 686.084 140.267L686.084 140.267L686.084 140.267L686.084 140.267C686.263 140.114 686.441 139.961 686.601 139.798C689.188 137.162 690.414 134.04 690 131.624V112.598C690.104 111.907 690.106 111.242 690 110.624V98.5978C690.104 97.9071 690.106 97.2425 690 96.624V75ZM688 103.15C687.591 103.713 687.124 104.265 686.601 104.798C686.441 104.961 686.263 105.114 686.084 105.267L686.084 105.267L686.084 105.267C685.994 105.344 685.904 105.422 685.816 105.501C685.27 105.989 684.703 106.431 684.122 106.827C685.601 106.706 686.95 106.954 688 107.604V103.15ZM683.696 103.223L683.696 103.223L683.696 103.223L683.694 103.225C683.601 103.305 683.508 103.386 683.413 103.471C679.806 106.699 675.756 108.263 674.374 106.962C672.992 105.661 674.798 101.985 678.405 98.7569C682.013 95.5287 686.063 93.9647 687.445 95.2656C688.719 96.465 687.289 99.715 684.23 102.74C684.059 102.909 683.88 103.064 683.696 103.223L683.696 103.223ZM683.696 117.223L683.696 117.223L683.696 117.223C683.88 117.064 684.059 116.909 684.23 116.74C687.289 113.715 688.719 110.465 687.445 109.266C686.063 107.965 682.013 109.529 678.405 112.757C674.798 115.985 672.992 119.661 674.374 120.962C675.756 122.263 679.806 120.699 683.413 117.471C683.508 117.386 683.601 117.305 683.693 117.225L683.696 117.223L683.696 117.223ZM683.696 138.223C683.88 138.064 684.059 137.909 684.231 137.74C687.289 134.715 688.719 131.465 687.445 130.266C686.063 128.965 682.013 130.529 678.405 133.757C674.798 136.985 672.992 140.661 674.374 141.962C675.756 143.263 679.806 141.699 683.414 138.471C683.509 138.386 683.603 138.304 683.696 138.223ZM696.082 51L699.381 43.418V42.4688H693.357V43.8398H697.6L694.295 51H696.082Z" fill="black"/>
<path fill-rule="evenodd" clip-rule="evenodd" d="M588.629 30.0117L593.504 15.9375H595.965L589.637 33H587.645L581.328 15.9375H583.777L588.629 30.0117ZM592 40H594V61.6242C594.106 62.2425 594.104 62.907 594 63.5977V73H600V75H594V83.6238C594.106 84.2424 594.104 84.9072 594 85.5981V96.6238C594.414 99.0406 593.188 102.162 590.601 104.798C590.441 104.961 590.263 105.114 590.084 105.267L590.084 105.267L590.084 105.267L590.084 105.267L590.084 105.267L590.084 105.267C589.994 105.344 589.904 105.422 589.816 105.501C585.584 109.288 580.007 110.345 577.368 107.861C574.73 105.378 576.023 100.289 580.255 96.5018C580.377 96.3928 580.5 96.286 580.624 96.1814C579.335 96.0795 578.204 95.6481 577.368 94.8615C574.73 92.3778 576.023 87.2886 580.255 83.5018C584.142 80.0238 589.162 78.848 592 80.6035V75L566 75V73H577.523C577.47 72.9551 577.419 72.9089 577.368 72.8615C574.729 70.3778 576.023 65.2886 580.255 61.5018C584.142 58.0238 589.162 56.848 592 58.6036V40ZM586.085 73H592V68.1504C591.591 68.7128 591.124 69.2652 590.601 69.7978C590.44 69.9614 590.263 70.1138 590.084 70.2671L590.084 70.2673C589.994 70.3443 589.904 70.4216 589.816 70.5007C588.645 71.5485 587.371 72.3873 586.085 73ZM590.601 91.7978C591.124 91.2652 591.591 90.7129 592 90.1505V93.6035C591.273 93.1541 590.404 92.8968 589.447 92.821C589.571 92.7165 589.694 92.6097 589.816 92.5007C589.904 92.4216 589.994 92.3443 590.084 92.2673L590.084 92.2672L590.084 92.2672L590.084 92.2672L590.084 92.2671L590.084 92.267L590.084 92.2669C590.263 92.1136 590.441 91.9614 590.601 91.7978ZM587.696 68.2231L587.696 68.2231C587.879 68.0645 588.059 67.9094 588.23 67.7395C591.289 64.715 592.719 61.465 591.445 60.2656C590.063 58.9647 586.013 60.5287 582.405 63.7568C578.798 66.985 576.992 70.6608 578.374 71.9618C579.756 73.2627 583.806 71.6987 587.413 68.4706C587.508 68.3855 587.603 68.3039 587.696 68.2231ZM587.696 90.2229L587.696 90.2232C587.603 90.3039 587.509 90.3855 587.414 90.4706C583.806 93.6987 579.756 95.2627 578.374 93.9618C576.992 92.6608 578.798 88.985 582.405 85.7568C586.013 82.5287 590.063 80.9647 591.445 82.2656C592.719 83.465 591.289 86.715 588.23 89.7395C588.059 89.9094 587.88 90.0643 587.696 90.2229ZM587.696 103.223L587.696 103.223C587.603 103.304 587.509 103.386 587.414 103.471C583.806 106.699 579.756 108.263 578.374 106.962C576.992 105.661 578.798 101.985 582.405 98.7569C586.013 95.5287 590.063 93.9647 591.445 95.2656C592.719 96.465 591.289 99.715 588.23 102.74C588.059 102.909 587.88 103.064 587.696 103.223ZM600.082 37L603.381 29.418V28.4688H597.357V29.8398H601.6L598.295 37H600.082Z" fill="black"/>
<path fill-rule="evenodd" clip-rule="evenodd" d="M492.629 44.0117L497.504 29.9375H499.965L493.637 47H491.645L485.328 29.9375H487.777L492.629 44.0117ZM498 54H496V80.6035C493.162 78.848 488.142 80.0238 484.255 83.5018C480.023 87.2886 478.73 92.3778 481.368 94.8615C482.48 95.908 484.114 96.3258 485.949 96.1756C485.368 96.5712 484.8 97.0138 484.255 97.5018C480.023 101.289 478.73 106.378 481.368 108.861C482.204 109.648 483.335 110.079 484.624 110.181C484.5 110.286 484.377 110.393 484.255 110.502C480.023 114.289 478.73 119.378 481.368 121.861C484.007 124.345 489.584 123.288 493.816 119.501C493.904 119.422 493.994 119.344 494.084 119.267L494.084 119.267L494.084 119.267L494.084 119.267C494.263 119.114 494.441 118.961 494.601 118.798C497.188 116.162 498.414 113.04 498 110.624V99.5984C498.104 98.9072 498.106 98.2423 498 97.6236V85.5983C498.104 84.9072 498.106 84.2423 498 83.6236V54ZM496 90.1505C495.591 90.7129 495.124 91.2652 494.601 91.7978C494.441 91.9614 494.263 92.1138 494.084 92.2671L494.084 92.2672C493.994 92.3443 493.904 92.4216 493.816 92.5007C493.27 92.9887 492.703 93.4313 492.122 93.8269C493.601 93.7058 494.95 93.954 496 94.6035V90.1505ZM496 104.151C495.591 104.713 495.124 105.265 494.601 105.798C494.441 105.961 494.263 106.114 494.084 106.267L494.084 106.267C493.994 106.344 493.904 106.422 493.816 106.501C493.694 106.61 493.571 106.717 493.447 106.821C494.404 106.897 495.273 107.154 496 107.604V104.151ZM491.696 90.2231L491.696 90.2231C491.603 90.3039 491.509 90.3855 491.414 90.4706C487.806 93.6987 483.756 95.2627 482.374 93.9618C480.992 92.6608 482.798 88.985 486.405 85.7568C490.013 82.5287 494.063 80.9647 495.445 82.2656C496.719 83.465 495.289 86.715 492.231 89.7395C492.059 89.9094 491.88 90.0644 491.696 90.2231ZM491.696 104.223L491.696 104.223C491.88 104.064 492.059 103.909 492.231 103.74C495.289 100.715 496.719 97.465 495.445 96.2657C494.063 94.9647 490.013 96.5287 486.405 99.7569C482.798 102.985 480.992 106.661 482.374 107.962C483.756 109.263 487.806 107.699 491.414 104.471C491.509 104.386 491.603 104.304 491.696 104.223ZM491.696 117.223C491.88 117.064 492.059 116.909 492.231 116.74C495.289 113.715 496.719 110.465 495.445 109.266C494.063 107.965 490.013 109.529 486.405 112.757C482.798 115.985 480.992 119.661 482.374 120.962C483.756 122.263 487.806 120.699 491.414 117.471C491.509 117.386 491.603 117.304 491.696 117.223ZM504.082 51L507.381 43.418V42.4688H501.357V43.8398H505.6L502.295 51H504.082Z" fill="black"/>
<rect x="698" y="136" width="7" height="2" fill="white"/>
<path d="M705.571 130.627L700.623 142H697.942L702.899 131.26H696.536V129.203H705.571V130.627Z" fill="black"/>
<rect x="707" y="114" width="10" height="2" fill="white"/>
<path d="M710.454 112.477H711.808C712.452 112.477 712.93 112.315 713.24 111.993C713.551 111.671 713.706 111.243 713.706 110.71C713.706 110.194 713.551 109.793 713.24 109.506C712.936 109.219 712.514 109.075 711.975 109.075C711.488 109.075 711.081 109.21 710.753 109.479C710.425 109.743 710.261 110.089 710.261 110.517H707.721C707.721 109.849 707.899 109.251 708.257 108.724C708.62 108.19 709.124 107.774 709.769 107.476C710.419 107.177 711.134 107.027 711.913 107.027C713.267 107.027 714.327 107.353 715.095 108.003C715.862 108.647 716.246 109.538 716.246 110.675C716.246 111.261 716.067 111.8 715.71 112.292C715.353 112.784 714.884 113.162 714.304 113.426C715.024 113.684 715.561 114.07 715.912 114.586C716.27 115.102 716.448 115.711 716.448 116.414C716.448 117.551 716.032 118.462 715.2 119.147C714.374 119.833 713.278 120.176 711.913 120.176C710.636 120.176 709.59 119.839 708.775 119.165C707.967 118.491 707.562 117.601 707.562 116.493H710.103C710.103 116.974 710.281 117.366 710.639 117.671C711.002 117.976 711.447 118.128 711.975 118.128C712.578 118.128 713.05 117.97 713.39 117.653C713.735 117.331 713.908 116.906 713.908 116.379C713.908 115.102 713.205 114.463 711.799 114.463H710.454V112.477Z" fill="black"/>
<rect x="697" y="100" width="9" height="2" fill="white"/>
<path d="M697.248 99.707L697.986 93.2031H705.158V95.3213H700.069L699.753 98.0723C700.356 97.75 700.998 97.5889 701.678 97.5889C702.896 97.5889 703.852 97.9668 704.543 98.7227C705.234 99.4785 705.58 100.536 705.58 101.896C705.58 102.722 705.404 103.463 705.053 104.119C704.707 104.77 704.209 105.276 703.559 105.64C702.908 105.997 702.141 106.176 701.256 106.176C700.482 106.176 699.765 106.021 699.103 105.71C698.44 105.394 697.916 104.951 697.529 104.383C697.148 103.814 696.946 103.167 696.923 102.44H699.437C699.489 102.974 699.674 103.39 699.99 103.688C700.312 103.981 700.731 104.128 701.247 104.128C701.821 104.128 702.264 103.923 702.574 103.513C702.885 103.097 703.04 102.511 703.04 101.755C703.04 101.028 702.861 100.472 702.504 100.085C702.146 99.6982 701.64 99.5049 700.983 99.5049C700.38 99.5049 699.891 99.6631 699.516 99.9795L699.27 100.208L697.248 99.707Z" fill="black"/>
<rect x="601" y="100" width="9" height="2" fill="white"/>
<path d="M601.248 99.707L601.986 93.2031H609.158V95.3213H604.069L603.753 98.0723C604.356 97.75 604.998 97.5889 605.678 97.5889C606.896 97.5889 607.852 97.9668 608.543 98.7227C609.234 99.4785 609.58 100.536 609.58 101.896C609.58 102.722 609.404 103.463 609.053 104.119C608.707 104.77 608.209 105.276 607.559 105.64C606.908 105.997 606.141 106.176 605.256 106.176C604.482 106.176 603.765 106.021 603.103 105.71C602.44 105.394 601.916 104.951 601.529 104.383C601.148 103.814 600.946 103.167 600.923 102.44H603.437C603.489 102.974 603.674 103.39 603.99 103.688C604.312 103.981 604.731 104.128 605.247 104.128C605.821 104.128 606.264 103.923 606.574 103.513C606.885 103.097 607.04 102.511 607.04 101.755C607.04 101.028 606.861 100.472 606.504 100.085C606.146 99.6982 605.64 99.5049 604.983 99.5049C604.38 99.5049 603.891 99.6631 603.516 99.9795L603.27 100.208L601.248 99.707Z" fill="black"/>
<rect x="613" y="86" width="7" height="2" fill="white"/>
<path d="M620.571 80.627L615.623 92H612.942L617.899 81.2598H611.536V79.2031H620.571V80.627Z" fill="black"/>
<path d="M603.454 64.4766H604.808C605.452 64.4766 605.93 64.3154 606.24 63.9932C606.551 63.6709 606.706 63.2432 606.706 62.71C606.706 62.1943 606.551 61.793 606.24 61.5059C605.936 61.2188 605.514 61.0752 604.975 61.0752C604.488 61.0752 604.081 61.21 603.753 61.4795C603.425 61.7432 603.261 62.0889 603.261 62.5166H600.721C600.721 61.8486 600.899 61.251 601.257 60.7236C601.62 60.1904 602.124 59.7744 602.769 59.4756C603.419 59.1768 604.134 59.0273 604.913 59.0273C606.267 59.0273 607.327 59.3525 608.095 60.0029C608.862 60.6475 609.246 61.5381 609.246 62.6748C609.246 63.2607 609.067 63.7998 608.71 64.292C608.353 64.7842 607.884 65.1621 607.304 65.4258C608.024 65.6836 608.561 66.0703 608.912 66.5859C609.27 67.1016 609.448 67.7109 609.448 68.4141C609.448 69.5508 609.032 70.4619 608.2 71.1475C607.374 71.833 606.278 72.1758 604.913 72.1758C603.636 72.1758 602.59 71.8389 601.775 71.165C600.967 70.4912 600.562 69.6006 600.562 68.4932H603.103C603.103 68.9736 603.281 69.3662 603.639 69.6709C604.002 69.9756 604.447 70.1279 604.975 70.1279C605.578 70.1279 606.05 69.9697 606.39 69.6533C606.735 69.3311 606.908 68.9062 606.908 68.3789C606.908 67.1016 606.205 66.4629 604.799 66.4629H603.454V64.4766Z" fill="black"/>
<rect x="504" y="114" width="10" height="2" fill="white"/>
<path d="M507.454 112.477H508.808C509.452 112.477 509.93 112.315 510.24 111.993C510.551 111.671 510.706 111.243 510.706 110.71C510.706 110.194 510.551 109.793 510.24 109.506C509.936 109.219 509.514 109.075 508.975 109.075C508.488 109.075 508.081 109.21 507.753 109.479C507.425 109.743 507.261 110.089 507.261 110.517H504.721C504.721 109.849 504.899 109.251 505.257 108.724C505.62 108.19 506.124 107.774 506.769 107.476C507.419 107.177 508.134 107.027 508.913 107.027C510.267 107.027 511.327 107.353 512.095 108.003C512.862 108.647 513.246 109.538 513.246 110.675C513.246 111.261 513.067 111.8 512.71 112.292C512.353 112.784 511.884 113.162 511.304 113.426C512.024 113.684 512.561 114.07 512.912 114.586C513.27 115.102 513.448 115.711 513.448 116.414C513.448 117.551 513.032 118.462 512.2 119.147C511.374 119.833 510.278 120.176 508.913 120.176C507.636 120.176 506.59 119.839 505.775 119.165C504.967 118.491 504.562 117.601 504.562 116.493H507.103C507.103 116.974 507.281 117.366 507.639 117.671C508.002 117.976 508.447 118.128 508.975 118.128C509.578 118.128 510.05 117.97 510.39 117.653C510.735 117.331 510.908 116.906 510.908 116.379C510.908 115.102 510.205 114.463 508.799 114.463H507.454V112.477Z" fill="black"/>
<rect x="516" y="100" width="9" height="2" fill="white"/>
<path d="M516.248 99.707L516.986 93.2031H524.158V95.3213H519.069L518.753 98.0723C519.356 97.75 519.998 97.5889 520.678 97.5889C521.896 97.5889 522.852 97.9668 523.543 98.7227C524.234 99.4785 524.58 100.536 524.58 101.896C524.58 102.722 524.404 103.463 524.053 104.119C523.707 104.77 523.209 105.276 522.559 105.64C521.908 105.997 521.141 106.176 520.256 106.176C519.482 106.176 518.765 106.021 518.103 105.71C517.44 105.394 516.916 104.951 516.529 104.383C516.148 103.814 515.946 103.167 515.923 102.44H518.437C518.489 102.974 518.674 103.39 518.99 103.688C519.312 103.981 519.731 104.128 520.247 104.128C520.821 104.128 521.264 103.923 521.574 103.513C521.885 103.097 522.04 102.511 522.04 101.755C522.04 101.028 521.861 100.472 521.504 100.085C521.146 99.6982 520.64 99.5049 519.983 99.5049C519.38 99.5049 518.891 99.6631 518.516 99.9795L518.27 100.208L516.248 99.707Z" fill="black"/>
<rect x="506" y="86" width="7" height="2" fill="white"/>
<path d="M513.571 80.627L508.623 92H505.942L510.899 81.2598H504.536V79.2031H513.571V80.627Z" fill="black"/>
<path d="M48.2731 155.375C47.6888 158.362 50.9434 164.565 57.4914 164.767C65.4074 165.012 70.4648 159.214 68.1087 149.752L56.2924 97.536C54.8858 91.3202 55.9416 87.9487 56.6927 85.9395C58.6965 80.5791 63.7028 78.3681 64.9216 80.0843C65.6175 81.0641 67.3 85.6455 62.5105 93.8511C58.7751 100.251 41.3956 108.643 40.1201 123.661C39.016 136.72 53.2937 146.366 65.6167 142.574C73.7983 140.056 78.016 128.167 72.9518 122.034C59.5876 105.85 38.1547 130.619 58.917 137.405C56.6593 135.704 55.1204 134.387 54.8339 132.777C52.0442 117.105 76.6548 121.243 70.0237 136.111C67.297 142.224 56.2832 143.407 50.0109 137.953C44.7566 133.384 42.4251 124.582 48.2722 118.263C56.1914 109.705 65.5415 102.023 68.0248 90.3071C70.9614 76.4531 61.3735 65.6524 55.3119 79.2798C53.2779 83.8525 52.5203 88.4427 54.4678 97.239L66.2748 150.566C67.1201 154.384 66.5542 159.638 62.8327 162.052C60.9893 163.248 54.466 164.072 52.8701 161.216" fill="black"/>
<path d="M48.2731 155.375C47.6888 158.362 50.9434 164.565 57.4914 164.767C65.4074 165.012 70.4648 159.214 68.1087 149.752L56.2924 97.536C54.8858 91.3202 55.9416 87.9487 56.6927 85.9395C58.6965 80.5791 63.7028 78.3681 64.9216 80.0843C65.6175 81.0641 67.3 85.6455 62.5105 93.8511C58.7751 100.251 41.3956 108.643 40.1201 123.661C39.016 136.72 53.2937 146.366 65.6167 142.574C73.7983 140.056 78.016 128.167 72.9518 122.034C59.5876 105.85 38.1547 130.619 58.917 137.405C56.6593 135.704 55.1204 134.387 54.8339 132.777C52.0442 117.105 76.6548 121.243 70.0237 136.111C67.297 142.224 56.2832 143.407 50.0109 137.953C44.7566 133.384 42.4251 124.582 48.2722 118.263C56.1914 109.705 65.5415 102.023 68.0248 90.3071C70.9614 76.4531 61.3735 65.6524 55.3119 79.2798C53.2779 83.8525 52.5203 88.4427 54.4678 97.239L66.2748 150.566C67.1201 154.384 66.5542 159.638 62.8327 162.052C60.9893 163.248 54.466 164.072 52.8701 161.216" stroke="black" stroke-width="0.101028"/>
<path d="M48.1825 155.823C48.2107 154.385 48.8241 153.017 49.8878 152.019C50.9516 151.021 52.3785 150.476 53.8546 150.502C55.3308 150.529 56.7353 151.125 57.7592 152.161C58.7831 153.196 59.3424 154.585 59.3143 156.023C59.2861 157.461 58.6726 158.829 57.6089 159.827C56.5452 160.825 55.1183 161.371 53.6421 161.344C52.1659 161.318 50.7614 160.721 49.7376 159.686C48.7137 158.65 48.1543 157.261 48.1825 155.823Z" fill="black" stroke="black" stroke-width="0.101028"/>
<path d="M40.0598 253.988C40.0598 253.488 42.1929 251.431 44.7999 249.416C50.405 245.086 54.453 240.347 56.8074 235.361C62.2066 223.927 60.4963 212.004 53.3005 210.916C49.3205 210.313 44.2816 213.589 44.2816 216.779C44.2816 217.963 44.55 218.058 47.4677 217.911C51.0377 217.731 53.4529 221.651 51.521 224.49C48.4684 228.975 41.1153 226.398 41.1153 220.843C41.1153 215.975 43.7416 212.1 48.3641 210.149C58.2562 205.974 67.6725 213.671 66.848 225.258C66.1722 234.755 58.8421 243.625 44.612 252.165C41.2356 254.191 40.0598 254.662 40.0598 253.988Z" fill="black"/>
<path d="M73.5961 217.245C73.5961 219.178 72.27 220.745 70.6343 220.745C68.9985 220.745 67.6724 219.178 67.6724 217.245C67.6724 215.311 68.9985 213.744 70.6343 213.744C72.27 213.744 73.5961 215.311 73.5961 217.245Z" fill="black"/>
<path d="M73.8006 229.079C73.8006 231.013 72.4745 232.58 70.8388 232.58C69.203 232.58 67.8769 231.013 67.8769 229.079C67.8769 227.146 69.203 225.579 70.8388 225.579C72.4745 225.579 73.8006 227.146 73.8006 229.079Z" fill="black"/>
<path fill-rule="evenodd" clip-rule="evenodd" d="M28.6529 86.235C28.1083 86.267 27.5303 86.8419 26.5458 88.254C24.5546 90.8838 21.698 97.0426 20.5567 100.254C18.8453 106.992 18.2839 115.185 18.8544 123.095C19.1339 125.722 19.6955 131.571 20.5567 136.255C21.9775 147.388 22.2694 152.072 22.2694 156.756C21.9784 164.366 19.9945 170.507 16.8511 174.606C16.2804 175.19 16 175.776 16 176.076C16 176.376 16.2804 176.962 16.8511 177.546C19.9945 181.645 21.9784 187.781 22.2694 195.106C22.2694 200.075 21.9775 204.753 20.5567 215.587C19.6955 220.57 19.1339 226.425 18.8544 228.767C18.2839 236.962 18.8453 245.16 20.5567 251.597C21.9775 256.866 27.1172 265.948 28.5491 265.948C29.1196 265.948 29.6909 265.355 29.6909 264.768C29.6909 264.471 29.1196 263.602 28.5491 262.718C25.1259 257.749 23.691 252.768 23.1205 245.157C23.1205 240.474 23.4124 236.078 24.8332 224.957C25.4036 220.573 25.9749 215.303 26.2656 213.247C27.4068 199.199 25.1307 187.196 19.4253 178.416C18.5639 177.244 17.9929 176.076 17.9929 176.076C17.9929 176.076 18.5639 174.898 19.4253 173.726C25.1307 164.946 27.4068 152.943 26.2656 138.595C25.9749 136.838 25.4036 131.576 24.8332 126.895C23.4124 116.07 23.1205 111.668 23.1205 106.984C23.691 99.374 25.1259 94.3926 28.5491 89.424C29.6901 87.6669 29.9811 87.0889 29.4106 86.5042C29.1414 86.3205 28.9004 86.2204 28.6529 86.235Z" fill="black"/>
<path fill-rule="evenodd" clip-rule="evenodd" d="M319.079 256.205L321.079 256.205L321.079 202.602C323.916 204.357 328.937 203.181 332.824 199.703C334.11 198.553 335.125 197.282 335.84 196L345 196L345 194L336.712 194C337.411 191.766 337.129 189.679 335.71 188.344C333.072 185.86 327.495 186.918 323.263 190.705C323.175 190.784 323.084 190.861 322.995 190.938C322.816 191.091 322.638 191.244 322.478 191.407C321.665 192.236 320.986 193.112 320.45 194L311 194L311 196L319.491 196C319.038 197.264 318.893 198.494 319.079 199.582L319.079 256.205ZM334.705 189.243C335.601 190.087 335.157 191.929 333.75 194L324.327 194C324.495 193.821 324.669 193.643 324.848 193.466C325.02 193.296 325.199 193.141 325.382 192.982L325.383 192.982C325.476 192.901 325.57 192.82 325.665 192.735C329.273 189.507 333.323 187.942 334.705 189.243ZM332.147 196L322.692 196C321.202 198.144 320.715 200.075 321.634 200.94C323.016 202.241 327.066 200.676 330.673 197.448C331.205 196.972 331.698 196.486 332.147 196ZM348.5 200L351.04 200L351.04 187.186L350.768 187.186L345.468 189.084L345.468 191.149L348.5 190.209L348.5 200Z" fill="black"/>
<path fill-rule="evenodd" clip-rule="evenodd" d="M223.079 256.205L225.079 256.205L225.079 202.602C227.916 204.357 232.937 203.181 236.824 199.703C238.11 198.553 239.125 197.282 239.84 196L249 196L249 194L240.712 194C241.411 191.766 241.129 189.679 239.71 188.344C237.072 185.86 231.495 186.918 227.263 190.705C227.175 190.784 227.085 190.861 226.995 190.938L226.995 190.938L226.995 190.938L226.994 190.938L226.994 190.938C226.816 191.092 226.638 191.244 226.478 191.407C225.664 192.236 224.986 193.112 224.45 194L215 194L215 196L223.491 196C223.038 197.264 222.893 198.494 223.079 199.582L223.079 256.205ZM238.705 189.243C239.601 190.087 239.157 191.929 237.75 194L228.327 194C228.495 193.821 228.669 193.643 228.848 193.466C229.02 193.296 229.199 193.141 229.382 192.982L229.382 192.982C229.476 192.901 229.57 192.82 229.665 192.735C233.273 189.507 237.323 187.942 238.705 189.243ZM236.147 196L226.692 196C225.202 198.144 224.715 200.075 225.634 200.94C227.016 202.241 231.066 200.676 234.673 197.448C235.205 196.972 235.698 196.486 236.147 196ZM252.5 200L255.04 200L255.04 187.186L254.768 187.186L249.468 189.084L249.468 191.149L252.5 190.209L252.5 200Z" fill="black"/>
<path fill-rule="evenodd" clip-rule="evenodd" d="M127.079 256.205L129.079 256.205L129.079 202.602C131.916 204.357 136.937 203.181 140.824 199.703C142.11 198.553 143.125 197.282 143.84 196L153 196L153 194L144.712 194C145.411 191.766 145.129 189.679 143.71 188.344C141.072 185.86 135.495 186.918 131.263 190.705C131.175 190.784 131.085 190.861 130.995 190.938L130.995 190.938L130.995 190.938C130.816 191.091 130.638 191.244 130.478 191.407C129.665 192.236 128.986 193.112 128.45 194L119 194L119 196L127.491 196C127.038 197.264 126.893 198.495 127.079 199.582L127.079 256.205ZM142.705 189.243C143.601 190.087 143.157 191.929 141.75 194L132.327 194C132.495 193.821 132.669 193.643 132.848 193.466C133.02 193.296 133.199 193.141 133.382 192.982L133.383 192.982L133.383 192.982L133.383 192.982C133.476 192.901 133.57 192.82 133.665 192.735C137.273 189.507 141.323 187.942 142.705 189.243ZM140.147 196L130.692 196C129.202 198.144 128.715 200.075 129.634 200.94C131.016 202.241 135.066 200.676 138.673 197.448C139.205 196.972 139.698 196.486 140.147 196ZM156.5 200L159.04 200L159.04 187.186L158.768 187.186L153.468 189.084L153.468 191.149L156.5 190.209L156.5 200Z" fill="black"/>
<path fill-rule="evenodd" clip-rule="evenodd" d="M334.395 47H332.145V29.9375H334.395V47ZM338 54H336V72.6035C333.162 70.848 328.142 72.0238 324.255 75.5018C320.023 79.2886 318.73 84.3778 321.368 86.8615C322.48 87.908 324.114 88.3258 325.949 88.1756C325.368 88.5712 324.8 89.0138 324.255 89.5018C320.023 93.2886 318.73 98.3778 321.368 100.861C324.007 103.345 329.584 102.288 333.816 98.5007C333.904 98.4215 333.994 98.3442 334.084 98.2671C334.263 98.1138 334.441 97.9614 334.601 97.7978C335.124 97.2652 335.591 96.7129 336 96.1505V107.604C333.162 105.848 328.142 107.024 324.255 110.502C320.023 114.289 318.73 119.378 321.368 121.861C324.007 124.345 329.584 123.288 333.816 119.501C333.904 119.422 333.994 119.344 334.084 119.267L334.084 119.267L334.084 119.267L334.084 119.267L334.084 119.267C334.263 119.114 334.441 118.961 334.601 118.798C337.188 116.162 338.414 113.04 338 110.624V91.5981C338.104 90.9072 338.106 90.2424 338 89.6238V77.5981C338.104 76.9072 338.106 76.2424 338 75.6238V54ZM336 82.1505C335.591 82.7129 335.124 83.2652 334.601 83.7978C334.441 83.9614 334.263 84.1138 334.084 84.2671C333.994 84.3442 333.904 84.4215 333.816 84.5007C333.27 84.9886 332.703 85.4313 332.122 85.8269C333.601 85.7057 334.95 85.954 336 86.6035V82.1505ZM332.23 81.7395C332.059 81.9094 331.88 82.0645 331.696 82.2231C331.603 82.3038 331.509 82.3855 331.414 82.4706C327.806 85.6987 323.756 87.2627 322.374 85.9618C320.992 84.6608 322.798 80.985 326.405 77.7568C330.013 74.5287 334.063 72.9647 335.445 74.2656C336.719 75.465 335.289 78.715 332.23 81.7395ZM331.696 96.2231L331.696 96.2231C331.88 96.0644 332.059 95.9094 332.23 95.7395C335.289 92.715 336.719 89.465 335.445 88.2656C334.063 86.9646 330.013 88.5287 326.405 91.7568C322.798 94.985 320.992 98.6608 322.374 99.9618C323.756 101.263 327.806 99.6987 331.414 96.4706C331.509 96.3855 331.603 96.3038 331.696 96.2231ZM331.696 117.223L331.696 117.223C331.88 117.064 332.059 116.909 332.231 116.74C335.289 113.715 336.719 110.465 335.445 109.266C334.063 107.965 330.013 109.529 326.405 112.757C322.798 115.985 320.992 119.661 322.374 120.962C323.756 122.263 327.806 120.699 331.414 117.471C331.509 117.386 331.603 117.304 331.696 117.223ZM340.082 51L343.381 43.418V42.4688H337.357V43.8398H341.6L338.295 51H340.082Z" fill="black"/>
<path fill-rule="evenodd" clip-rule="evenodd" d="M238.395 47H236.145V29.9375H238.395V47ZM242 68H240V86.6035C237.162 84.848 232.142 86.0238 228.255 89.5018C224.023 93.2886 222.73 98.3778 225.368 100.861C228.007 103.345 233.584 102.288 237.816 98.5007C237.904 98.4216 237.994 98.3444 238.084 98.2674L238.084 98.2673L238.084 98.2673L238.084 98.2672L238.084 98.2671L238.084 98.267C238.263 98.1137 238.441 97.9614 238.601 97.7978C239.124 97.2652 239.591 96.7129 240 96.1505V108.604C237.162 106.848 232.142 108.024 228.255 111.502C224.023 115.289 222.73 120.378 225.368 122.861C226.204 123.648 227.335 124.079 228.624 124.181C228.5 124.286 228.377 124.393 228.255 124.502C224.023 128.289 222.73 133.378 225.368 135.861C228.007 138.345 233.584 137.288 237.816 133.501C237.904 133.422 237.994 133.344 238.084 133.267L238.084 133.267L238.084 133.267C238.263 133.114 238.441 132.961 238.601 132.798C241.188 130.162 242.414 127.04 242 124.624V113.598C242.104 112.907 242.106 112.242 242 111.624V91.5981C242.104 90.9072 242.106 90.2424 242 89.6238V68ZM240 118.151C239.591 118.713 239.124 119.265 238.601 119.798C238.441 119.961 238.263 120.114 238.084 120.267L238.084 120.267C237.994 120.344 237.904 120.422 237.816 120.501C237.694 120.61 237.571 120.717 237.447 120.821C238.404 120.897 239.274 121.154 240 121.604V118.151ZM236.23 95.7395C236.059 95.9094 235.88 96.0644 235.696 96.2231L235.696 96.2234L235.696 96.2235C235.603 96.3041 235.508 96.3857 235.414 96.4705C231.806 99.6987 227.756 101.263 226.374 99.9618C224.992 98.6608 226.798 94.985 230.405 91.7568C234.013 88.5287 238.063 86.9646 239.445 88.2656C240.719 89.465 239.289 92.715 236.23 95.7395ZM235.696 118.223C235.88 118.064 236.059 117.909 236.231 117.74C239.289 114.715 240.719 111.465 239.445 110.266C238.063 108.965 234.013 110.529 230.405 113.757C226.798 116.985 224.992 120.661 226.374 121.962C227.756 123.263 231.806 121.699 235.414 118.471C235.508 118.386 235.602 118.304 235.695 118.224L235.696 118.224L235.696 118.223L235.696 118.223ZM235.696 131.223L235.696 131.223L235.696 131.223C235.88 131.064 236.059 130.909 236.231 130.74C239.289 127.715 240.719 124.465 239.445 123.266C238.063 121.965 234.013 123.529 230.405 126.757C226.798 129.985 224.992 133.661 226.374 134.962C227.756 136.263 231.806 134.699 235.414 131.471C235.508 131.386 235.601 131.305 235.694 131.225L235.696 131.223L235.696 131.223ZM244.082 51L247.381 43.418V42.4688H241.357V43.8398H245.6L242.295 51H244.082Z" fill="black"/>
<path fill-rule="evenodd" clip-rule="evenodd" d="M142.395 47H140.145V29.9375H142.395V47ZM146 82H144V108.604C141.162 106.848 136.142 108.024 132.255 111.502C128.023 115.289 126.73 120.378 129.368 122.861C130.48 123.908 132.114 124.326 133.949 124.176C133.368 124.571 132.8 125.014 132.255 125.502C128.023 129.289 126.73 134.378 129.368 136.861C130.204 137.648 131.335 138.079 132.624 138.181C132.5 138.286 132.377 138.393 132.255 138.502C128.023 142.289 126.73 147.378 129.368 149.861C132.007 152.345 137.584 151.288 141.816 147.501C141.904 147.422 141.994 147.344 142.084 147.267L142.084 147.267L142.084 147.267L142.084 147.267C142.263 147.114 142.441 146.961 142.601 146.798C145.188 144.162 146.414 141.04 146 138.624V127.598C146.104 126.907 146.106 126.242 146 125.624V113.598C146.104 112.907 146.106 112.242 146 111.624V82ZM144 118.151C143.591 118.713 143.124 119.265 142.601 119.798C142.441 119.961 142.263 120.114 142.084 120.267L142.084 120.267L142.084 120.267L142.084 120.267C141.994 120.344 141.904 120.422 141.816 120.501C141.27 120.989 140.703 121.431 140.122 121.827C141.601 121.706 142.95 121.954 144 122.604V118.151ZM144 132.15C143.591 132.713 143.124 133.265 142.601 133.798C142.441 133.961 142.263 134.114 142.084 134.267C141.994 134.344 141.904 134.422 141.816 134.501C141.694 134.61 141.571 134.717 141.447 134.821C142.404 134.897 143.273 135.154 144 135.604V132.15ZM140.231 117.74C140.059 117.909 139.88 118.064 139.696 118.223L139.696 118.223L139.696 118.224L139.695 118.224C139.602 118.304 139.508 118.386 139.414 118.471C135.806 121.699 131.756 123.263 130.374 121.962C128.992 120.661 130.798 116.985 134.405 113.757C138.013 110.529 142.063 108.965 143.445 110.266C144.719 111.465 143.289 114.715 140.231 117.74ZM139.696 132.223L139.696 132.223C139.88 132.064 140.059 131.909 140.231 131.74C143.289 128.715 144.719 125.465 143.445 124.266C142.063 122.965 138.013 124.529 134.405 127.757C130.798 130.985 128.992 134.661 130.374 135.962C131.756 137.263 135.806 135.699 139.414 132.471C139.508 132.386 139.603 132.304 139.696 132.223L139.696 132.223ZM139.696 145.223C139.88 145.064 140.059 144.909 140.231 144.74C143.289 141.715 144.719 138.465 143.445 137.266C142.063 135.965 138.013 137.529 134.405 140.757C130.798 143.985 128.992 147.661 130.374 148.962C131.756 150.263 135.806 148.699 139.414 145.471C139.508 145.386 139.602 145.304 139.695 145.224L139.696 145.224L139.696 145.223L139.696 145.223ZM148.082 51L151.381 43.418V42.4688H145.357V43.8398H149.6L146.295 51H148.082Z" fill="black"/>
<line x1="31.0374" y1="101" x2="416" y2="101" stroke="black" stroke-width="2"/>
<line x1="31.0374" y1="143" x2="416" y2="143" stroke="black" stroke-width="2"/>
<line x1="31.0374" y1="115" x2="416" y2="115" stroke="black" stroke-width="2"/>
<line x1="31.0374" y1="237" x2="416" y2="237" stroke="black" stroke-width="2"/>
<line x1="31.0374" y1="209" x2="416" y2="209" stroke="black" stroke-width="2"/>
<line x1="31.0374" y1="129" x2="416" y2="129" stroke="black" stroke-width="2"/>
<line x1="31.0374" y1="251" x2="416" y2="251" stroke="black" stroke-width="2"/>
<line x1="31.0374" y1="223" x2="416" y2="223" stroke="black" stroke-width="2"/>
<rect x="32" y="87" width="384" height="178" stroke="black" stroke-width="2"/>
<rect x="346" y="114" width="7" height="2" fill="white"/>
<path d="M353.571 108.627L348.623 120H345.942L350.899 109.26H344.536V107.203H353.571V108.627Z" fill="black"/>
<path d="M358.454 92.4766H359.808C360.452 92.4766 360.93 92.3154 361.24 91.9932C361.551 91.6709 361.706 91.2432 361.706 90.71C361.706 90.1943 361.551 89.793 361.24 89.5059C360.936 89.2188 360.514 89.0752 359.975 89.0752C359.488 89.0752 359.081 89.21 358.753 89.4795C358.425 89.7432 358.261 90.0889 358.261 90.5166H355.721C355.721 89.8486 355.899 89.251 356.257 88.7236C356.62 88.1904 357.124 87.7744 357.769 87.4756C358.419 87.1768 359.134 87.0273 359.913 87.0273C361.267 87.0273 362.327 87.3525 363.095 88.0029C363.862 88.6475 364.246 89.5381 364.246 90.6748C364.246 91.2607 364.067 91.7998 363.71 92.292C363.353 92.7842 362.884 93.1621 362.304 93.4258C363.024 93.6836 363.561 94.0703 363.912 94.5859C364.27 95.1016 364.448 95.7109 364.448 96.4141C364.448 97.5508 364.032 98.4619 363.2 99.1475C362.374 99.833 361.278 100.176 359.913 100.176C358.636 100.176 357.59 99.8389 356.775 99.165C355.967 98.4912 355.562 97.6006 355.562 96.4932H358.103C358.103 96.9736 358.281 97.3662 358.639 97.6709C359.002 97.9756 359.447 98.1279 359.975 98.1279C360.578 98.1279 361.05 97.9697 361.39 97.6533C361.735 97.3311 361.908 96.9062 361.908 96.3789C361.908 95.1016 361.205 94.4629 359.799 94.4629H358.454V92.4766Z" fill="black"/>
<path d="M345.248 79.707L345.986 73.2031H353.158V75.3213H348.069L347.753 78.0723C348.356 77.75 348.998 77.5889 349.678 77.5889C350.896 77.5889 351.852 77.9668 352.543 78.7227C353.234 79.4785 353.58 80.5361 353.58 81.8955C353.58 82.7217 353.404 83.4629 353.053 84.1191C352.707 84.7695 352.209 85.2764 351.559 85.6396C350.908 85.9971 350.141 86.1758 349.256 86.1758C348.482 86.1758 347.765 86.0205 347.103 85.71C346.44 85.3936 345.916 84.9512 345.529 84.3828C345.148 83.8145 344.946 83.167 344.923 82.4404H347.437C347.489 82.9736 347.674 83.3896 347.99 83.6885C348.312 83.9814 348.731 84.1279 349.247 84.1279C349.821 84.1279 350.264 83.9229 350.574 83.5127C350.885 83.0967 351.04 82.5107 351.04 81.7549C351.04 81.0283 350.861 80.4717 350.504 80.085C350.146 79.6982 349.64 79.5049 348.983 79.5049C348.38 79.5049 347.891 79.6631 347.516 79.9795L347.27 80.208L345.248 79.707Z" fill="black"/>
<rect x="249" y="128" width="9" height="2" fill="white"/>
<path d="M249.248 127.707L249.986 121.203H257.158V123.321H252.069L251.753 126.072C252.356 125.75 252.998 125.589 253.678 125.589C254.896 125.589 255.852 125.967 256.543 126.723C257.234 127.479 257.58 128.536 257.58 129.896C257.58 130.722 257.404 131.463 257.053 132.119C256.707 132.77 256.209 133.276 255.559 133.64C254.908 133.997 254.141 134.176 253.256 134.176C252.482 134.176 251.765 134.021 251.103 133.71C250.44 133.394 249.916 132.951 249.529 132.383C249.148 131.814 248.946 131.167 248.923 130.44H251.437C251.489 130.974 251.674 131.39 251.99 131.688C252.312 131.981 252.731 132.128 253.247 132.128C253.821 132.128 254.264 131.923 254.574 131.513C254.885 131.097 255.04 130.511 255.04 129.755C255.04 129.028 254.861 128.472 254.504 128.085C254.146 127.698 253.64 127.505 252.983 127.505C252.38 127.505 251.891 127.663 251.516 127.979L251.27 128.208L249.248 127.707Z" fill="black"/>
<rect x="261" y="114" width="7" height="2" fill="white"/>
<path d="M268.571 108.627L263.623 120H260.942L265.899 109.26H259.536V107.203H268.571V108.627Z" fill="black"/>
<path d="M251.454 92.4766H252.808C253.452 92.4766 253.93 92.3154 254.24 91.9932C254.551 91.6709 254.706 91.2432 254.706 90.71C254.706 90.1943 254.551 89.793 254.24 89.5059C253.936 89.2188 253.514 89.0752 252.975 89.0752C252.488 89.0752 252.081 89.21 251.753 89.4795C251.425 89.7432 251.261 90.0889 251.261 90.5166H248.721C248.721 89.8486 248.899 89.251 249.257 88.7236C249.62 88.1904 250.124 87.7744 250.769 87.4756C251.419 87.1768 252.134 87.0273 252.913 87.0273C254.267 87.0273 255.327 87.3525 256.095 88.0029C256.862 88.6475 257.246 89.5381 257.246 90.6748C257.246 91.2607 257.067 91.7998 256.71 92.292C256.353 92.7842 255.884 93.1621 255.304 93.4258C256.024 93.6836 256.561 94.0703 256.912 94.5859C257.27 95.1016 257.448 95.7109 257.448 96.4141C257.448 97.5508 257.032 98.4619 256.2 99.1475C255.374 99.833 254.278 100.176 252.913 100.176C251.636 100.176 250.59 99.8389 249.775 99.165C248.967 98.4912 248.562 97.6006 248.562 96.4932H251.103C251.103 96.9736 251.281 97.3662 251.639 97.6709C252.002 97.9756 252.447 98.1279 252.975 98.1279C253.578 98.1279 254.05 97.9697 254.39 97.6533C254.735 97.3311 254.908 96.9062 254.908 96.3789C254.908 95.1016 254.205 94.4629 252.799 94.4629H251.454V92.4766Z" fill="black"/>
<rect x="152" y="142" width="10" height="2" fill="white"/>
<path d="M155.454 140.477H156.808C157.452 140.477 157.93 140.315 158.24 139.993C158.551 139.671 158.706 139.243 158.706 138.71C158.706 138.194 158.551 137.793 158.24 137.506C157.936 137.219 157.514 137.075 156.975 137.075C156.488 137.075 156.081 137.21 155.753 137.479C155.425 137.743 155.261 138.089 155.261 138.517H152.721C152.721 137.849 152.899 137.251 153.257 136.724C153.62 136.19 154.124 135.774 154.769 135.476C155.419 135.177 156.134 135.027 156.913 135.027C158.267 135.027 159.327 135.353 160.095 136.003C160.862 136.647 161.246 137.538 161.246 138.675C161.246 139.261 161.067 139.8 160.71 140.292C160.353 140.784 159.884 141.162 159.304 141.426C160.024 141.684 160.561 142.07 160.912 142.586C161.27 143.102 161.448 143.711 161.448 144.414C161.448 145.551 161.032 146.462 160.2 147.147C159.374 147.833 158.278 148.176 156.913 148.176C155.636 148.176 154.59 147.839 153.775 147.165C152.967 146.491 152.562 145.601 152.562 144.493H155.103C155.103 144.974 155.281 145.366 155.639 145.671C156.002 145.976 156.447 146.128 156.975 146.128C157.578 146.128 158.05 145.97 158.39 145.653C158.735 145.331 158.908 144.906 158.908 144.379C158.908 143.102 158.205 142.463 156.799 142.463H155.454V140.477Z" fill="black"/>
<rect x="164" y="128" width="9" height="2" fill="white"/>
<path d="M164.248 127.707L164.986 121.203H172.158V123.321H167.069L166.753 126.072C167.356 125.75 167.998 125.589 168.678 125.589C169.896 125.589 170.852 125.967 171.543 126.723C172.234 127.479 172.58 128.536 172.58 129.896C172.58 130.722 172.404 131.463 172.053 132.119C171.707 132.77 171.209 133.276 170.559 133.64C169.908 133.997 169.141 134.176 168.256 134.176C167.482 134.176 166.765 134.021 166.103 133.71C165.44 133.394 164.916 132.951 164.529 132.383C164.148 131.814 163.946 131.167 163.923 130.44H166.437C166.489 130.974 166.674 131.39 166.99 131.688C167.312 131.981 167.731 132.128 168.247 132.128C168.821 132.128 169.264 131.923 169.574 131.513C169.885 131.097 170.04 130.511 170.04 129.755C170.04 129.028 169.861 128.472 169.504 128.085C169.146 127.698 168.64 127.505 167.983 127.505C167.38 127.505 166.891 127.663 166.516 127.979L166.27 128.208L164.248 127.707Z" fill="black"/>
<rect x="154" y="114" width="7" height="2" fill="white"/>
<path d="M161.571 108.627L156.623 120H153.942L158.899 109.26H152.536V107.203H161.571V108.627Z" fill="black"/>
</svg>
